<?xml version="1.0" encoding="utf-8"?>
<!-- Generator: Adobe Illustrator 23.0.1, SVG Export Plug-In . SVG Version: 6.00 Build 0)  -->
<svg version="1.1" id="Ebene_1" xmlns="http://www.w3.org/2000/svg" xmlns:xlink="http://www.w3.org/1999/xlink" x="0px" y="0px"
	 viewBox="0 0 9351.7 4197.3" style="enable-background:new 0 0 9351.7 4197.3;" xml:space="preserve">
<style type="text/css">
	.st0{fill:#1B1D20;}
	.st1{fill:#F9772A;}
	.st2{fill:#49D7FA;}
</style>
<g>
	<path class="st0" d="M7791,2725.1c6.3-4.5,2.7-11.4,2.4-17c-9.3-177.7-3-355.5-5.6-533.2c-0.3-22.2,6.5-26.9,27.2-26.5
		c68.7,1.2,137.4,1,206.1,0.1c18-0.3,24.3,4.1,24.2,23.3c-0.6,317.4-0.6,634.7,0,952.1c0,19.6-6.8,23.2-24.4,23
		c-72-0.9-144-1.2-215.9,0.1c-18.6,0.3-27.1-8.7-36.3-21.7c-138.8-195.3-282.9-386.8-417.4-585.5c-7.8,2.4-4.2,8.8-3.9,13.2
		c10.1,189.7,2,379.5,5.3,569.2c0.4,21.2-6.8,25.1-26,24.8c-68.7-1.1-137.4-1.3-206.1,0.2c-21,0.5-24.8-6.1-24.8-25.6
		c0.6-315.2,0.6-630.4,0-945.5c0-20.4,3.8-28,26.3-27.5c79.6,1.5,159.2,1.1,238.8,0.1c17.3-0.2,27.9,5.1,37.5,19.2
		c128.3,186.7,272.5,362.4,388.6,557.6C7787.3,2725.6,7789.1,2725.2,7791,2725.1z"/>
	<path class="st0" d="M9351.7,2643.9c0.3,281.6-185.9,486-467.2,514.6c-119.2,12.1-235.4,2.5-346.3-44.8
		c-194.7-82.9-312.9-277.2-299.1-489.1c15-230.5,151.7-406.9,364.1-467.8c131.1-37.6,263.2-36.9,393.7,1.8
		C9217.4,2224,9351.5,2409.2,9351.7,2643.9z M8545.3,2632.6c1,62.3,7.9,111.7,27.1,158.8c38.4,94.6,118.1,144.7,227.5,143.6
		c109.8-1.2,187.9-52,223.1-149.1c34.4-94.7,32.6-190.6-2-284.9c-19.9-54.1-56.2-95.5-109.5-120.1c-160.3-73.8-327.5,12.4-359,185.4
		C8547.9,2591.9,8546.8,2618.2,8545.3,2632.6z"/>
	<path class="st0" d="M2051.9,2645.4c0-155.9,0.4-311.8-0.5-467.7c-0.1-22.2,4.5-29.9,28.3-29.4c78.5,1.6,157,1.3,235.5,0.1
		c19.9-0.3,25.6,4.5,25.4,25c-1.1,105.7,0,211.5-1,317.3c-0.2,20.7,4.5,28,26.9,27.8c111.2-1.2,222.4-1.1,333.6-0.1
		c20.8,0.2,25.2-6.4,25-26c-0.9-104.7,0.5-209.3-1.1-314c-0.4-25.1,6.8-30.6,30.8-30.1c76.3,1.6,152.7,1.6,228.9,0
		c23.9-0.5,28.2,7.5,28.2,29.5c-0.7,314-0.6,628,0.1,942c0.1,21.6-5.8,27.5-27.2,27.1c-78.5-1.3-157-1.3-235.5,0
		c-20.6,0.3-25.3-5.6-25.1-25.5c1-113.4-0.2-226.8,1.1-340.2c0.3-23.7-4.8-31.3-30.1-30.9c-109,1.5-218.1,1.3-327.1,0.1
		c-23.2-0.3-28.9,6.4-28.6,29.1c1.2,113.4,0,226.8,1,340.2c0.2,21-4.7,27.7-26.7,27.3c-78.5-1.4-157-1.4-235.5,0
		c-21.8,0.4-27-6.1-26.9-27.3C2052.4,2961.6,2052,2803.5,2051.9,2645.4z"/>
	<path class="st0" d="M455.5,1862c121.5,2.4,238.2,23,343.7,88.5c21.1,13.1,28.5,22.3,13.2,46.9c-32.8,52.6-62.4,107.4-91.8,162
		c-9.6,17.8-16.6,21.4-36,10.9c-82.8-44.8-170-73.8-266.2-60.3c-72.1,10.2-110,55.6-103.5,121.7c3.4,34.7,23.8,57.5,50.7,76.2
		c36.1,25.1,77,40.5,116.9,57.7c67,28.9,134.1,57.5,196.9,95.2c143.8,86.2,198,215.7,177.8,377.6
		c-20.2,162.4-118.3,262.4-271.7,304.1c-196.8,53.5-386.4,31.8-563.6-75c-24.7-14.9-28.2-27.3-12-52.3
		c33.2-51.1,63.7-104.1,93.3-157.4c10.9-19.7,18.1-23,38.1-9.8c85.3,56.2,178.8,84.2,281.9,74.2c31.9-3.1,62.4-11,89.5-28.3
		c68.5-43.7,72.1-128.8,7.1-177.3c-41.4-30.9-90-48.5-137-68.4c-64.3-27.2-127.9-55.8-185.9-95C41.5,2448.3-20.8,2258.1,48.6,2090.6
		c56.6-136.6,170.5-197.8,309.1-222.1C389.9,1862.9,422.6,1860,455.5,1862z"/>
	<path class="st0" d="M3254.6,2790.8c-0.9-63.8-1.9-127.6-2.8-191.5c3.1-25.1,3.1-50.1,0-75.2c0.5-115.6,1.7-231.2,1.1-346.7
		c-0.1-22.1,4.4-30.5,28.1-29.4c38,1.8,76.3-0.2,114.4-0.6c39.1,0.5,78.3,2.9,117.3,0.8c25.9-1.4,30,8.1,29.9,31.3
		c-0.9,174-0.4,348.1-0.4,522.1c0,37,0.9,74,9.4,110.3c13.7,58.9,46.3,100.4,107.7,113.4c39.5,8.4,79.5,12.8,119.6,2.6
		c62.3-5.6,105.4-43.2,122.8-107.9c11.2-41.4,11.9-84,11.9-126.5c0.2-172.1,0.4-344.2-0.2-516.3c-0.1-19.4,2.2-28.8,25.8-28.3
		c70.8,1.5,141.6,0.9,212.4-0.7c21.7-0.5,27.7,6.2,27.2,27.5c-1.2,47.9,0.3,95.8,0.7,143.7c-0.5,39.2-0.5,78.5-1.6,117.7
		c-4.3,154.2,15.4,309.9-27.1,461.9c-3.2,6.8-6.9,13.4-9.7,20.4c-44.3,112.7-125,185.2-240.6,220.7c-37.6,11.5-76.6,14.5-114.7,23.2
		c-68.5,1-136.9,0.9-204.5-12.2c-126.7-24.6-229.8-81.7-287-204.6C3271.3,2896.6,3262.9,2843.9,3254.6,2790.8z"/>
	<path class="st0" d="M1000.3,2650c-0.9-279,182.9-483.7,460.9-513.4c113-12.1,224.5-8,331.7,34.1c88.7,34.9,88.5,35.6,42.6,115.4
		c-21.7,37.8-44.7,74.9-65,113.4c-10,18.9-18,21.7-36.7,10c-65.7-41-139.1-50.3-214.2-42c-105.7,11.6-177.1,77.5-201.9,181.4
		c-16,67.2-14.3,134.5,3.5,200.7c35.3,131.4,141.9,195.7,287.3,176.1c53.8-7.3,104.4-22.9,149.2-53.7c16.1-11.1,22.6-8.4,31,8.1
		c27.6,54.4,55.7,108.6,85.6,161.8c10.8,19.1,6.4,27.2-10.9,37.8c-115.5,70.3-241.7,90-374.1,81c-85.7-5.8-167.9-25.4-243.8-67.1
		C1089.5,3008.1,1000.9,2847.8,1000.3,2650z"/>
	<path class="st0" d="M2868.3,3590.5c-31.5,112.7-63.1,223.4-92.8,334.5c-6,22.3-15.4,29.2-37.9,27.8c-34.8-2.1-69.8-1.3-104.7-0.2
		c-14.8,0.5-21-4.9-24.9-18.8c-50.3-179.3-100.8-358.6-152.1-537.6c-5-17.6-0.2-20.4,15.7-20.1c43.6,0.7,87.3,1.6,130.9-0.4
		c21.7-1,27.3,8.6,31.6,27c23.4,99.7,47.9,199.1,72.2,298.5c0.9,3.6-0.3,9.2,7.6,9.2c24.9-100.6,50.8-201.1,74-302.3
		c5.7-25.1,15-34.1,40.7-32.3c32.6,2.3,65.5,1.9,98.1,0.1c21.5-1.2,29.7,6,34.5,27.3c23.9,105,49.7,209.6,75.4,316.8
		c27-105.2,54.5-208.2,79.2-311.8c5.9-24.8,14.5-34.4,40.6-32.5c34.7,2.5,69.8,1.4,104.7,0.3c20.7-0.6,22.6,13.6,17.9,25.2
		c-40.1,97.6-61.6,200.7-91.3,301.3c-22.2,75.2-43.6,150.7-64.3,226.3c-4.7,17.3-11.4,25.2-31,24.1c-34.8-1.9-69.9-2.3-104.6,0
		c-21.6,1.5-27.7-8-32.1-26.1c-25.5-105.9-51.8-211.6-78-317.3C2876.2,3603.6,2877.6,3596.4,2868.3,3590.5z"/>
	<path class="st0" d="M6619,3148.6c-19.2-3.5-38.4-3.7-57.5,0.2c-2.1,0-4.3,0.1-6.4,0.1c-13.4-8.3-7.7-21.7-7.7-32.7
		c-0.3-310.7,0.1-621.5-0.9-932.2c-0.1-28.2,5.5-40.2,35.3-35.4c12.6,2,26-0.6,39-1.1c2.5,0,5.1-0.1,7.6-0.1
		c22.7,0.1,45.3,0.2,68,0.2c39.2,0.4,78.3,1.6,117.5,0.8c17.2-0.4,21.9,4.9,21.9,22c-0.5,317.9-0.5,635.7,0.1,953.6
		c0,19.5-6.6,23.2-24.3,23.1C6747.3,3146.7,6683.2,3147.9,6619,3148.6z"/>
	<path class="st0" d="M6495.1,3622c0.5-71.1,0.9-142.2,1.7-213.2c0.1-11.4-4-23.9,5.1-34.1c44.7,0.5,89.4,2,134,0.9
		c19.8-0.5,31.9,6,42.9,22.1c70.7,104,150.9,201.3,221.6,317.1c-7-107.7-2-206-5.3-304.2c-1-30.8,9.2-37,36.6-34.8
		c27.1,2.2,54.6,2,81.7,0.1c23.2-1.6,31.8,3.6,31.6,29.6c-1.3,172.3-1.3,344.6,0,516.9c0.2,25.3-6.7,31.8-30.8,30.4
		c-39.1-2.2-83,9.4-116.2-4.8c-33.5-14.3-49-58.9-72-90.5c-60.1-82.4-119.5-165.3-181.3-251c0,91.3,0.5,178.8-0.3,266.2
		c-0.3,25.6,11.9,59.7-5.7,74.6c-14.9,12.6-47.7,4.7-72.6,4.8c-69.7,0.4-69.6,0.2-69.8-68.6
		C6496.1,3796.4,6495.6,3709.2,6495.1,3622z"/>
	<path class="st0" d="M4093.2,3674.4c-8.2,47.7-13.3,95.9-38.2,139.5c-28.4,49.6-67.7,86.1-117.3,113.7
		c-31.1,17.3-62.3,31.5-98.5,31c-70.6,3.8-140.8,13-209-19c-90.7-42.5-146.5-109.6-173-206.9c-19.6-71.8,0.1-135.4,21.9-200.6
		c43.1-78.3,105.9-131.5,193.7-153.7c68.2-17.3,136-14.3,204-0.1c121,37,191.2,118.9,214,242.5c0.9,11.4,1.7,22.7,2.6,34.1
		C4093.3,3661.4,4093.2,3667.9,4093.2,3674.4z M3627.4,3662.5c0,81.5,32.1,138.7,89.7,160c76.4,28.2,157.5-5.2,185.2-76.2
		c36.9-94.6,3.7-207.6-69.9-237.4c-4-1.6-8.1-3.2-12.3-4.5C3710.2,3472,3627.4,3539.9,3627.4,3662.5z"/>
	<path class="st1" d="M6882.2,1834.5c-17.7-39.7-23.5-82.1-31.6-123.8c-25.4-131.3-51-262.5-76-393.9c-3-15.7-10.1-23.8-25.7-28.7
		c-72.7-22.9-143.9-51.9-217.7-69.9c-111.3-27.2-214.2-77.6-324.1-108c-4.8-1.3-11.3-0.6-11.9-8.9c2.4-8.8,10.7-6.8,15.9-5.7
		c137.9,29.5,277.5,41.2,418.3,40.7c35-0.1,69.6-3.5,104.3-7.8c64.8-8,114-39.1,147.9-95.6c59.8-99.9,87.4-210.7,111-322.9
		c6.9-32.5,11.9-65.5,21.8-98.1c0,16.5,0.2,33,0,49.5c-1.8,153.8-3.1,307.5-6,461.3c-0.5,24.2,12.9,28.4,30.4,33.9
		c167.2,52.8,334.3,106.1,501.5,159.2c11.7,3.7,23.3,7.9,35,11.8c-0.7,2.9-1.5,5.8-2.2,8.7c-31.9-5-63.7-10.5-95.6-14.9
		c-127.6-17.6-255.3-32.2-384.4-18c-117.1,12.8-158.2,48.1-184.3,163.6c-24.7,109.2-27.9,220.3-26.3,331.7
		C6882.4,1810.7,6882.2,1822.6,6882.2,1834.5z"/>
	<path class="st0" d="M6206.6,3953.7c-23.3-3.6-46.6-3.7-69.9,0c-46.4-2.9-92.7-3-139.1,0.2c-40.1-0.8-80.3-3.1-120.4-1.7
		c-23.6,0.8-28.7-7.5-28.5-29.6c0.7-87-0.6-174.1-1.1-261.1c0.5-83.6,1.8-167.1,1-250.7c-0.2-23.3,3.7-36,30.4-34
		c23.8,1.7,47.8,0.5,71.6,0.2c48.8-0.6,97.5-1.5,146.3-2.3c37.2,3.3,74.5,2.9,111.7,0.4c0,0,2.2,1.7,2.2,1.7l2.2-1.7
		c5.4-0.1,10.7-0.3,16.1-0.4c3.5,2.1,7.1,4.2,10.6,6.3c-0.3,32.6-1.9,65.3-0.5,97.9c0.9,20.2-5.4,26.1-25.6,25.7
		c-56.6-1.2-113.2,0.7-169.8-0.8c-23-0.6-32.4,3.4-31.8,29.6c1.6,67.5,0.2,67.5,68.4,67.6c37,0,74,0.7,111-0.2
		c15.8-0.4,24.1,2.5,23,21c-1.5,24.9-1.5,50.1,0,75.1c1,18.1-6.6,22-22.8,21.7c-51.1-0.7-102.3,0.7-153.4-0.5
		c-19.7-0.5-25.8,4.7-26,25.3c-0.9,81.3-1.7,81.3,80.4,81.3c41.4,0,82.7-0.2,124.1,0.4c10.2,0.1,22.1-4.6,30.2,6.5
		c-0.4,25.8-3.3,51.9-0.6,77.4C6249.4,3940.6,6242.1,3958.5,6206.6,3953.7z"/>
	<path class="st1" d="M5514.1,1414.5c7-25.8-4.5-49.5-8.8-73.8c-8.2-46.1-19.1-91.8-26.9-137.9c-4.1-24.4-15.5-36.4-39.7-44.1
		c-138.6-44.1-276.7-90.1-414.1-139c66.7,7.5,133.2,16.7,200,22.2c76,6.2,152.6,10.9,228-5c29.4-6.2,63.9-8.8,77.7-44.5
		c44.8-29.9,59.6-79.2,74.7-125.6c22.2-68.2,47.5-136,54.6-207.9c0,112.6,0.9,225.3-0.3,337.9c-0.8,71.3-5.8,55.2,50.6,73.3
		c119.1,38.4,238.6,75.7,357.9,113.6c6.7,2.1,13.2,5.1,18.1,12.8c-35.5-4.9-70.8-10.6-106.4-14.4c-15.5-1.7-32.3-9.2-46.6,4.3
		c-3.7-0.2-7.3-0.3-11-0.5c-6.2-18.9-21.3-10.1-33.4-10.7c-65.3-6.9-130.4-5.3-195.1,5.5c-54.6,9.1-89.2,41.6-105.4,94.2
		c-17.3,56.5-25.9,114.3-27.2,173.3c-6.3,47.1-2.2,94.4-4.2,141.6c0,0.1-1.3,0.1-1.1,0.1c-5.2-25.5-9.2-51.2-15.8-76.2
		C5531.2,1480.6,5533.8,1444.6,5514.1,1414.5z"/>
	<path class="st1" d="M6939.6,4197.2c-187.6-1.8-370.9-32.9-551.7-81c-12.2-3.2-27-0.5-36.4-10.8c-7.8-8.6-34.6,3.8-25.7-21
		c7.2-20.1,12.8-40.5,47-30.2c217.6,65.5,439.9,98.7,667.7,85.5c206-11.9,400.8-61.1,572.1-181.4c185.4-130.3,290.6-311.6,330-532.9
		c1.3-7.5,4-15.1,3.5-22.6c-2.2-32.8,18-33.5,41.4-29.8c29.7,4.7,13,26.6,11.1,38.2c-56.9,349.4-252.9,585.3-583.9,708.8
		C7273.4,4172.9,7110.1,4197.8,6939.6,4197.2z"/>
	<path class="st2" d="M5620.2,335.8c59.9,6,119.7,12.4,179.6,17.8c63.1,5.6,126.2,6.6,189-4c48.9-8.3,82.4-36.9,105.3-79.7
		c38.5-71.9,59.2-149.6,74.5-229c2.6-13.7,5.4-27.4,5.9-40.9c0,110,1.1,219.9-0.8,329.9c-0.5,27,8.2,38,33.2,45.6
		c109.4,33.2,218.3,68.3,327.3,102.8c17.3,5.5,34.3,11.8,51.2,18.7c-107.6-18.8-215.5-30.8-324.8-25.1c-5.4,0.3-10.9,0.5-16.3,0.9
		c-86.7,6.4-120.4,34.1-141,118.3c-9.6,39.2-13.4,79.2-16.1,119.6c-2.7,40.2-4,80.4-8.2,121.3c-18-90.5-36.5-181-54-271.6
		c-18-92.7-17.7-92.5-108.6-121.9c-99.2-32.1-198.2-64.7-297.3-97.1C5619.5,339.5,5619.9,337.6,5620.2,335.8z"/>
	<path class="st2" d="M5058.2,702.9c0.3,11.3,0.5,22.6,0.8,33.9c-5.6,0-11.2,0-16.8,0c-1.2-85.7-32.3-166.5-41-250.6
		c-5.2-49.6-28.2-71.2-75-84.3c-89.7-25.1-177.5-57.2-265.7-89c48.1-8.7,95.2,4.5,142.7,7c55.6,3,110.9,5.8,166.3-3.1
		c40.6-6.5,70.3-26.9,90.6-62.5c41.2-72.2,58.7-151.8,73.9-232.2c0.8-4,1.2-8.1,7.1-11.9c0,38.3,0.2,76.6,0,115
		c-0.3,55.6,0.9,111.3-2.2,166.8c-1.6,29.3,7.3,41.9,35.6,50.2c91.9,26.9,182.8,57,274.1,86c5.8,1.9,11.3,4.9,15.8,14
		c-28-2.9-56-5.2-83.8-8.8c-64-8.4-128.3-9.6-192.5-4.5c-65.4,5.1-94.1,29.2-110.2,92.2c-10.3,40.2-16.3,81.1-16.1,122.8
		c-0.4,2-0.8,4-1.1,5.9c-0.7,15.5-1.3,31.1-2,46.6C5058.3,698.4,5058.3,700.7,5058.2,702.9z"/>
	<path class="st1" d="M4384.2,1035.4c-94.3,116.6-144.5,251.9-166.6,398.5c-7.9,52.7-14.9,105.7-11.2,159.3
		c-4.4,103.1,9.6,204.8,32.6,304.4c9.6,41.7-8.3,58.7-35.3,81.3c-8.8-29.3-20.4-55.2-23.8-82.1c-9.7-77.2-24.4-153.8-27.9-231.8
		c-1.6-115.5,4.2-230.3,33.1-343c14.1-54.9,37.5-106.4,53.8-160.4c54.2-100.6,118-194.3,202.3-272.3c34.5-31.9,69.6-65.8,110.5-87.3
		c30.6-16.1,59.6-37.5,94.1-47.1c7.5-2.1,10.4-4.7,13.4,3.2c7.6,19.4-6.3,55.9-25.5,66.1c-89.3,47.8-166.8,110.2-232.3,187.5
		C4395.3,1019.3,4390,1027.5,4384.2,1035.4z"/>
	<path class="st1" d="M6689,826.8c79.8,0.7,145.5,61.4,144.5,133.6c-1,74-68.6,134.8-148.6,133.6c-78.8-1.2-143.8-63.2-142.5-136
		C6543.7,884.7,6609.1,826.1,6689,826.8z M6664.2,877.3c-46.2,0.2-83.1,33-83.6,74.2c-0.6,42.1,38.3,77.1,85.2,76.5
		c45.3-0.6,83.5-34.6,84.1-74.8C6750.5,911.5,6711.6,877,6664.2,877.3z"/>
	<path class="st1" d="M5482.5,981.1c-78.1,41.3-122.3,35.3-180.8-24.4c-34.2-62.5-11-124.8,44.2-151.9c48.7-24,130-14.3,162.4,51.1
		C5531.9,903.6,5515.2,944.4,5482.5,981.1z M5383.9,832c-39.3,0-69.3,27.3-69.1,63.1c0.1,33.9,32.9,62.5,71.1,62
		c35.4-0.5,68.2-30.3,68.4-62.1C5454.5,861.3,5421.8,832,5383.9,832z"/>
	<path class="st2" d="M5946.3,133.5c58.7,0.2,103.6,41.7,103.3,95.3c-0.3,53.8-45.3,94.2-104.5,94c-58.3-0.1-103.7-42-103.3-95.4
		C5842.2,173.6,5887,133.3,5946.3,133.5z M5927.4,166.9c-32.2,0.2-60.6,27-59.9,56.5c0.7,30,29,54.8,61.7,54.2
		c33.7-0.6,61.4-24.9,62.1-54.4C5992,193.5,5961.6,166.7,5927.4,166.9z"/>
	<path class="st1" d="M7454,1900.8c-42.6,17.7-67.4,6.1-92.4-26.5c-55.7-72.5-119.6-138.2-182.6-204.5c-6.1-6.5-26.8-13.7-11.3-25.1
		c13.4-9.9,28.4-34.5,51.9-9.6c56.8,60.1,113.2,120.6,166.6,183.8C7408.6,1845.3,7430.3,1872.1,7454,1900.8z"/>
	<path class="st2" d="M4934,297.3c-51.3-0.7-90.8-39-90.1-87.2c0.8-47.2,42.5-84.3,93.8-83.5c50.4,0.8,92,40.4,91.3,87.1
		C5028.3,259.2,4984.2,298,4934,297.3z M4920.4,252.8c28.6,0.5,54-21.1,53.7-45.8c-0.2-25.1-25-46.6-53.5-46.4
		c-28.6,0.2-52.7,22.2-52.1,47.7C4869,231.6,4893.1,252.3,4920.4,252.8z"/>
	<path class="st0" d="M5376.5,1881.9c87.2,0.6,174.4,2.1,261.6,1.1c24.7-0.3,31.7,6.7,31.1,31.1c-1.3,52.3,0.4,104.6,0.9,156.9
		c0,110.5,0,221,0,340.1c51.6-69.4,98.5-132.6,145.5-195.9c85-110.6,170.1-221.3,255.1-331.9c109.5,0,219,0,334.3,0
		c-65.1,85.4-126.2,165.6-187.2,245.7c-21.4,22.9-36.4,51.3-56.5,74.5c-67,77.5-124.8,162-190.3,240.5c-15.2,18.2-12.4,30,0,47.5
		c45.9,64.6,90.1,130.5,135.3,195.7c66.3,95.7,132.8,191.3,199.2,286.9c37.2,55.4,74.3,110.7,117.2,174.5c-71.4,0-136.5,0-201.6,0
		c-41.4-0.6-82.9-3.6-124-1c-25.2,1.6-43.2-7.5-54.1-26.1c-21.3-36.1-47.4-69-69.7-104c-36.2-56.8-74-112.4-112.8-167.4
		c0,0-0.1-0.1-0.1-0.1c-1.9-2.8-3.8-5.7-5.6-8.5c-20.6-31.4-40.9-63-61.9-94.2c-39.5-58.9-79.4-117.6-119.1-176.3
		c-6.1,14.2-6.1,25.9-6.1,37.6c-0.1,169.1-0.6,338.2,0.4,507.2c0.1,24-5.2,31.8-30.4,31.3c-80.7-1.7-161.5-2.3-242.1,0.3
		c-30.7,1-35-9.7-34.9-36.7c0.9-387.3,0.7-774.5,0.7-1161.8c0-14.1-1.2-28.2-1.9-42.3c0.1-5.9,0.2-11.7,0.4-17.6
		C5365.4,1886.4,5370.9,1884.2,5376.5,1881.9z"/>
	<path class="st0" d="M5030.1,3952.2c-6.1-81.1-1.2-162.3-2.9-243.4c-0.5-24.9-1-49.8-1.6-74.7c0.6-77.3,1.8-154.5,1.4-231.8
		c-0.1-19,3.6-27.6,25-26.7c39.1,1.6,78.4,1.3,117.6,0.1c19.1-0.6,23.7,6.6,23.4,24.7c-1.1,55.5,0.1,111.1-0.7,166.7
		c-0.3,17,5,22.7,22.3,22.4c58.8-0.9,117.7-1.3,176.5,0.2c21.9,0.6,24.9-8.3,24.4-26.8c-1.1-44.6-0.4-89.3-0.4-134
		c0-50,0-50,46.5-54.6c32.7,0,65.4,0,98.1,0.1c4.2-0.1,8.4-0.2,12.6-0.3c13.9,9.6,7.5,24,7.6,36.1c0.5,179.8,0.4,359.6,0.4,539.3
		c-1.4,0-2.1,0.7-2,2.1c-1.9-0.5-3.2,0.2-3.9,2c-53.1-1-106.1-2-159.2-3c-0.1-66.5-1.1-133,0.2-199.5c0.4-21.7-6.1-27.8-27.5-27.3
		c-56.7,1.4-113.4,1.2-170,0c-20.2-0.4-25.9,6.1-25.5,26c1.2,58.8-0.5,117.7,0.8,176.6c0.4,19.8-4.8,26.6-25.3,26.2
		c-44.6-1-89.3,0.5-133.9,1C5033.1,3951.8,5031.8,3951.4,5030.1,3952.2z"/>
	<path class="st0" d="M4318.2,3792.2c-50.7-141.3-24.3-339.8,175.9-409.3c4-1.3,8-2.6,11.9-3.8c4.4-1.2,8.7-2.3,13.1-3.5
		c42-6.3,84.2-10.4,126.7-8c47.2,2.7,92.7,12.1,134.2,36c13.7,7.9,19.4,15.7,8.6,32.2c-17.2,26.3-31.1,54.6-46.3,82.1
		c-7.1,11.3-14,17.1-28.6,8c-30.5-19-65.1-23.6-100.6-23c-73.5,1.2-121,39.3-137,111c-6.7,30.2-6.4,60.9-1,91
		c19.4,107.7,119,153.4,227.7,105.3c42.1-18.6,42.1-18.6,64,22.7c3.6,6.7,6.9,13.6,10.5,20.3c31.2,59.5,31.2,59.5-32.4,84.7
		c-12,4.8-23.9,10-35.9,15.1c0.1,1.6,0.3,3.2,0.6,4.8c0,0-0.4,0.7-0.4,0.7c-15.5-10.4-30.7-0.5-45.9,0.9
		c-106.3,10-205.6-3.8-286.9-81.7C4351,3853.2,4334.6,3822.7,4318.2,3792.2z"/>
	<path class="st2" d="M5574.4,3953.7c0.8-1.8,2.1-2.4,3.9-2c0,0-1.2,2.7-1.2,2.7L5574.4,3953.7z"/>
	<polygon class="st1" points="5002.4,1014.3 5005,1014.2 5002.6,1013.4 	"/>
	<path class="st2" d="M5030.1,3952.2c1.7-0.8,3-0.4,3.8,1.4c0,0-2.3,0.7-2.3,0.7L5030.1,3952.2z"/>
	<path class="st0" d="M4427.3,2646.9c0-156,0.6-312-0.6-468c-0.2-24.8,6.7-31.1,31-30.6c75.2,1.5,150.6,2.1,225.8-0.3
		c29.4-0.9,32.8,9.9,32.7,35.3c-0.9,233.4,0,466.9-1.1,700.3c-0.1,28.9,5.8,38.8,37,38.2c109-2.2,218.2-0.3,327.2-1.4
		c22.3-0.2,30.3,5,29.6,28.6c-1.7,56.7-1.4,113.5-0.3,170.2c0.4,20.7-4.8,28.2-27,28.1c-210.5-0.8-421.1-0.7-631.6-0.3
		c-17.2,0-25.3-4.9-25.3-22.8c0.2-159.1,0.1-318.2,0.1-477.3C4425.7,2646.9,4426.5,2646.9,4427.3,2646.9z"/>
</g>
</svg>
