<svg xmlns="http://www.w3.org/2000/svg" width="96" height="81" fill="none"><g fill="#737373" clip-path="url(#clip0)"><path d="M47.9 80.1l-.2-.2c-3.4-.5-5.3-2.9-5.3-7V51.7c0-1.1.3-1.4 1.3-1.4 2.9 0 2.9 0 2.9 2.8v21.2c.2 1.8 1 2.4 3 2.4 1.7 0 2.5-.6 2.6-2.3V62.3 51.7c0-.8.2-1.2 1.3-1.2 3 0 3 0 3 3v19.8c0 3.2-1.3 6.2-5.6 6.7l-.1.2h-3zM4.7 80.1l-.1-.2c-4-1.6-5.1-3.7-4.4-8 1-1.1 2.3-.3 3.4-.5.7-.2.7.3.7.8l.1 2.4c.1 1.4 1 2.1 2.3 2.1 1.5 0 2.4-.7 2.6-2.2.2-2.5-.4-4.6-2.2-6.4-1.6-1.4-3-3-4.4-4.6a9.7 9.7 0 01-2.2-9c.8-3.5 3.6-4.4 7-4.3l1.5.2c2.5.6 3.7 2 4 4.5v.6c0 2.8-.6 3.3-3.5 2.8-.4 0-.5-.2-.5-.6v-1.9c0-1.6-.7-2.3-2.1-2.3-1.6 0-2.3.6-2.5 2.2-.4 2.6 1 4.6 2.6 6.4 1.6 1.7 3.2 3.2 4.5 5 2.2 3 2.1 6.3 1 9.6-.5 1.5-1.6 2.4-3.1 3-.5.1-1.2 0-1.6.4h-3zM19 80.1l-.2-.2c-3.8-1.6-4.7-2.7-4.7-6.8V56.8c0-5.5 5.7-8.5 10.5-5.7 1.2.7 1.9 1.7 2 3 .2.7.2 1.5.2 2.1 0 2.7.4 2.3-2.3 2.4-1.3 0-1.7-.4-1.5-1.6 0-.6 0-1.3-.2-2-.4-1-1-1.6-2.2-1.6-1.2 0-2 .5-2.2 1.6l-.2 2v16.2c0 .8 0 1.4.3 2.1.3.9.9 1.4 1.9 1.4 1 0 1.8-.2 2.3-1.3.4-1 .4-2 .3-3.1 0-.8.2-1 1-1 3-.1 2.8-.1 3 2.8 0 3.3-1.5 5.2-4.6 6H19zM36.2 19.7l1-6 2-12.4c.2-.7.5-1 1.2-1C42 .6 44-.2 45 .8c.9.9.3 2.8.3 4.3v20.3c0 1.5-.7 1.4-1.7 1.4s-1.9.3-1.8-1.4V3.7c-.8 2.3-.9 4.6-1.2 6.7-.9 5-1.6 10-2.4 15.1-.1 1-.5 1.3-1.5 1.3-2.4 0-2.4 0-2.8-2.4-1.1-6.7-2.3-13.2-3.7-19.8v20.8c0 1-.2 1.5-1.3 1.4-2.5-.1-2 .3-2-2l-.1-23c0-1 .2-1.5 1.3-1.4 1.5.1 3.3-.4 4.3.3 1 .6.7 2.6 1 4l2.5 15h.4zM91.5 74V52c0-1.2.3-1.8 1.6-1.5h1.3c.7 0 1 .2 1 1v26.7c0 1.4-.4 1.8-1.7 1.7-1.1-.2-2.2-.1-3.3 0-.7 0-1-.3-1.1-1l-4-21.3-.5-1.4c-.3.6-.2 1-.2 1.5v20.7c0 1.1-.3 1.7-1.5 1.5H82c-1 0-1.1-.3-1.1-1.2V51.5c0-.9.3-1.1 1.1-1h1.8c2.8 0 2.8 0 3.3 2.7l4.2 20.9.2-.1zM27.6 65V51.9c0-1 .1-1.4 1.2-1.3 2.9 0 2.9 0 2.9 2.9v8.3c0 1 .2 1.6 1.4 1.5 1.4-.2 3.1.5 4-.4.8-.8.2-2.5.2-3.8v-7.4c0-1 .3-1.2 1.2-1.2 2.8 0 2.8 0 2.8 2.8v25c0 1.2-.1 1.7-1.5 1.6-2.6-.1-2.6 0-2.6-2.6v-9.6c0-.9-.2-1.2-1.2-1.2h-3.2c-.9 0-1.2.3-1.2 1.2l.1 10.7c0 1.2-.3 1.6-1.5 1.5-2.6 0-2.6 0-2.6-2.6V65zM71.6 13.5v-7c.2-4.8 1.8-6.8 7.5-6.3 2.2.2 4 .9 4.6 3.3.2 1 0 2.1 0 3.2 0 .5-.1.7-.6.6h-1c-1.9 0-1.9 0-2-1.9 0-1.4-.9-2.4-2-2.5-1-.2-2.1.6-2.5 1.9-.2.7-.3 1.3-.3 2v13.7c0 2.7 1.4 3.8 4 3.3.7-.1.9-.3.8-.9v-6c0-.8-.3-1-1-1-1.9.3-1.2-1-1.3-1.8-.2-1.2.5-1.2 1.4-1.2h3.4c1 0 1.3.3 1.2 1.3a473.5 473.5 0 00-.1 10.2c.2 1.8.2 2-1.5 2-1.6 0-3.2.4-4.6.4-3.8 0-5.8-1.6-6-6-.2-2.4 0-4.8 0-7.3zM69.3 65V51.7c0-1 .2-1.3 1.2-1.2h8.7c1 0 1.4.1 1.2 1.1v.3c0 2 0 2-2 2h-4.2c-.7 0-1 .2-1 .9v7.4c0 .8.4 1 1.1 1h4.6c.8-.1 1.2.2 1.1 1v1.3c0 .8-.3 1-1 1h-4.6c-1 0-1.2.3-1.1 1.1v7.7c0 1 .3 1.2 1.2 1.2l4.8-.1c.8 0 1.2.2 1.1 1v.3c0 2.6.3 2.1-2 2.1h-8c-1 0-1.2-.3-1.2-1.1V65zM56 26.6L60.4 6l1-4.6c.1-.7.5-1 1.3-1 3.2 0 3.2-.1 3.9 3.5L71.1 25c.3 1.6.3 1.5-1.4 1.7-1.5.1-2.2-.3-2.3-2 0-1.2-.6-2.4-.6-3.7-.1-1-.6-1.2-1.5-1.2-1.5.2-3.3-.5-4.3.3-.8.8-.6 2.6-1 4-.4 2.6-.4 2.6-3 2.5h-1zm7.8-22h-.2l-2 10.7c-.3 1.5-.3 1.6 1.4 1.6 2.8 0 3 0 2.5-2.8l-1.7-9.5zM90 .3h3.8c1 0 1.2.3 1.1 1.2v1c.1.7-.2 1-1 1h-4.2c-.8 0-1.1 0-1.1 1v6.3c0 .7.2.9.9.9l4 .2c1.4 0 1 1 1 1.8.2.8-.2 1.2-1 1.1l-3.6-.2c-1 0-1.5.4-1.5 1.4l.2 7c0 .6.3.5.8.6 1.5.4 2.9 0 4.4 0 .8 0 1.2 0 1.1 1 0 2 0 2-2 2.1-2.3.2-4.7-.6-7 0-.7.2-1-.1-1-1 .1-1.1.3-2.3.2-3.5-.4-6.8 0-13.6-.2-20.4 0-1.2.3-1.5 1.5-1.4H90zM57.6 65V51.7c0-1 .2-1.3 1.2-1.2 2.8 0 2.8 0 2.8 2.8v21.8c0 1.1.4 1.5 1.4 1.4h4.4c.8-.1 1 .2 1 1 .1 2.4.1 2.4-2.2 2.4h-7.5c-1 0-1.2-.3-1.2-1.1V65zM1 13.4v-12c0-.8.3-1 1.1-1H10c1.5-.1 1 .8 1 1.5s.5 1.7-1 1.6H5.7c-.8 0-1 0-1 .8v6.4c0 .8.2 1 1 1h4c.8 0 1 .2 1 .8 0 2.2 0 2.2-2.1 2.2-1.3 0-2.9-.4-3.6.3-.9.7-.3 2.3-.3 3.6v7c0 .8-.2 1-1 1C1 26.6 1 26.7 1 24V13.4zM50.1 15V4.7c0-.9-.2-1.3-1.2-1.2h-1.4c-1.4.2-1.9-.2-1.8-1.7 0-1 .2-1.4 1.4-1.4h10c1.4 0 1 .9 1 1.6 0 .7.4 1.7-1 1.5h-.2c-3.1 0-3.1 0-3.1 3.1v18.7c0 1-.1 1.5-1.4 1.5-2.3-.1-2.3 0-2.3-2.4V15zM7.8 38.4c1.6.4 2.1 1.5 2.1 3s.2 3.1-.2 4.7c-.3 1.3-1.1 1.9-2.3 2.1-1.8.3-3.6.2-5.5.2-.7 0-.8-.4-.8-1V30.1c0-.6.2-1 .9-1h5.1c1.5.1 2.3.9 2.6 2.3.2 1.5.2 3 0 4.6-.2 1.2-.6 2.1-2 2.4zm-.5 4.4v-2.2C7 39 5.8 39.4 4.8 39.4c-.5 0-1 0-1 .7v5.4c0 .3.1.6.5.7 1.8.5 3-.2 3-2.1v-1.3zM4 34.2v1.4c0 1.8.4 2.1 2.2 1.7.5-.1.9-.4 1-1 .2-1.3.3-2.5 0-3.7-.2-1.3-.9-1.6-2.5-1.4-1.3 0-.5 1-.7 1.6v1.4zM16.4 13.5V1.6c0-1 .3-1.3 1.4-1.3C20 .3 20 .3 20 2.6v19.3c0 1.3.2 1.8 1.6 1.7h3.5c.8-.1 1 .2 1 .9 0 2.1 0 2.1-2 2.1h-6.6c-1 0-1.2-.2-1.2-1.2V13.5zM44.5 38.7c2 .4 2.4 1.6 2.4 3.1v5.4c0 .6.2 1.2-.8 1.2-.9 0-2 .2-2-1.2v-5.4c0-.7 0-1.3-.8-1.6-1.4-.7-2.2-.2-2.2 1.3v5.8c0 1.2-.8 1-1.5 1s-1.2 0-1.2-1V30c0-.7.3-1 1-1l4.6.1c1.9 0 2.7 1 2.9 2.7V36c0 1.4-.8 2.2-2.4 2.8zm-.1-4.4c0-.7 0-1.4-.3-2.1-.3-1.3-1.4-1-2.4-1s-.6.8-.6 1.3v4.3c0 .3-.2.6.2.8 1 .5 2.6-.2 2.8-1.3l.3-2zM93.4 38.5c0 .6.3.5.5.6 1.2.6 2 1.3 2 2.8-.1 2-.2 3.9 0 5.8.2.8-.4.7-.9.7-.7 0-1.9.4-1.9-1v-5.5c0-1.5-.6-1.9-2-1.9-.8 0-1 .2-1 1v6.3c0 1.2-.6 1-1.4 1-.8 0-1.5.2-1.4-1 .1-4.7-.3-9.3.1-14l-.1-3.2c0-.7.1-1 1-1H93c1.8.2 2.6 1 2.7 2.7 0 1.3.2 2.5.1 3.7 0 1.7-.7 2.9-2.5 3zM90 33.3V37c0 .2 0 .4.2.6 1 .5 2.6-.2 2.8-1.3l.3-3c0-1.6-.7-2-2.3-2-1.6-.2-1 1-1 1.9zM69.6 38.7v-8.5c0-1 .4-1.2 1.2-1.1.8 0 1.5-.2 1.4 1v6c0 .9.2 1.2 1.2 1.2 2.5 0 2.5 0 2.5-2.4v-4.6c0-.4-.3-1.3.6-1 .7.2 2.2-.8 2.1 1 0 1-.2 2.1-.1 3.2.2 4.5 0 9 .1 13.4 0 1-.1 1.5-1.3 1.5-1.3 0-1.5-.5-1.5-1.6.2-2 0-4 .1-6 0-1-.3-1.2-1.2-1.2-3 .1-2.4-.3-2.5 2.4v4.8c0 1 0 1.6-1.3 1.6s-1.3-.6-1.3-1.7v-8zM15.9 29.2c1.1-.2 1.7 0 2 1.1 1 5.7 2.3 11.3 3.3 17 .1.2.8 1-.1 1-.8 0-2 .7-2.4-.7-.3-1-.4-2-.5-3-.2-.9-.5-1.3-1.5-1.3-3.2 0-3.2 0-3.7 3.3 0 .8.1 1.7-1.1 1.7-1.8 0-2 0-1.5-1.7l3.5-15.8c.3-1.1.4-2.2 2-1.6zm0 3l-.2.1-1.2 6.6c-.4 2.3-.1 2.6 2.3 2.2.6 0 .7-.3.6-.8-.6-2.6-1-5.3-1.5-8zM11.6 13.4V1.6c0-1 .2-1.3 1.2-1.3 2.5 0 2.5 0 2.5 2.5v22.3c0 1.1-.2 1.6-1.4 1.5-2.3 0-2.3 0-2.3-2.3V13.4zM59.6 32.6c0 1.9 0 1.8-1.9 1.7-.5 0-.8-.2-.7-.8v-1c0-1-.5-1.4-1.3-1.6-.8 0-1.4.3-1.7 1.2-.4 1.3 0 2.5.8 3.5 1 1.3 2.2 2.4 3.3 3.6 1.8 2 2.1 4.1 1.5 6.6-.6 2-2.5 3-5.3 2.6-2.1-.3-3-1.4-3.1-3.6 0-2 0-2 1.6-2 1 0 1.2.3 1.1 1.1V45c.2.9.8 1.4 1.6 1.4 1 0 1.6-.5 1.8-1.5.3-1.7-.4-3-1.6-4.3L53 38a6.5 6.5 0 01-1.8-5.5c.2-1.8 1-2.9 2.6-3.3 1.9-.4 3.7-.4 5.2 1.1.6.6.5 1.5.5 2.3zM63 38.8c.2 2 0 4 .2 5.9.2 1 .5 1.7 1.6 1.7 1 0 1.4-.9 1.6-1.8V44c-.2-1.1.4-1.3 1.4-1.3 1 0 1.2.4 1.2 1.3 0 1.5.2 3-1.4 3.9-1.8.9-3.6.8-5.4 0-1.3-.8-1.8-2-1.8-3.4V33c0-1.6.6-3 2.2-3.6 1.7-.8 3.4-.8 5 .1 1.2.7 1.9 3.3 1.3 4.4-.5.7-1.3.2-2 .3-.5 0-.5-.3-.5-.7v-.6c0-1-.4-2-1.6-2-1.2 0-1.5.8-1.6 2-.3 2 0 4-.2 6zM30.4 38.6v-8.3c0-1 .3-1.2 1.2-1.2H37c1 0 1 .4 1 1.2 0 .7-.2 1-1 1h-2.7c-.7 0-1 .1-1 .9v4.3c0 .8.3 1 1 .9h2c.7 0 1.4-.2 1.4 1 0 1.4-.7 1.3-1.5 1.3-2.9 0-3 0-2.9 2.8 0 1.2-.5 2.6.3 3.4.7.8 2.1.3 3.3.3.8 0 1.1.2 1.1 1.1 0 .8-.3 1.1-1.1 1.1h-5.3c-.8 0-1-.3-1-1v-8.8zM79.5 42c-.1-4 .3-7.9 0-11.8 0-1 .2-1.3 1.2-1.2 1.3.2 2.6-.3 3.9.4.3.2.8 0 1.2 0 .5-.1 1.1-.7 1.2.5 0 .8 0 1.3-1.1 1.3-3.7 0-3.7 0-3.7 3.8 0 2.6 0 2.6 2.9 2.7.6 0 1.2-.4 1.6.3.4.9 0 1.5-1 1.5-1 .1-2.4-.4-3.2.3-.7.7-.2 2.1-.2 3.3 0 3 0 3 3.1 3 1 0 1.9-.1 1.7 1.3 0 .7-.4 1-1 1h-5.5c-.8 0-1-.3-1-1.1l-.1-5.4zM24.8 37.1l2.5-7.1c.3-.8 1.7-1.3 2.3-.9.6.3.2.7 0 1l-2.8 8.4c-1 2.7-.5 5.6-.6 8.3 0 1.2-.4 1.5-1.5 1.5-1 0-1.4-.3-1.3-1.3.5-4.9-.6-9.4-2.4-13.9l-.8-2.6c-.2-.5-.8-1.2 0-1.3.9-.1 2-.6 2.5.7l1.7 6 .4 1.2zM47.9 38.6l-.1-8.5c0-1.1.6-1 1.4-1 .9 0 1.5 0 1.5 1v17c0 1.2-.7 1.1-1.5 1.2-1 0-1.3-.3-1.3-1.3v-8.4z"/></g><defs><clipPath id="clip0"><path fill="#fff" d="M0 .1h96v80H0z"/></clipPath></defs></svg>