<svg xmlns="http://www.w3.org/2000/svg" width="181" height="49" fill="none"><g fill="#737373" clip-path="url(#clip0)"><path d="M1 14.5h1.2v10.7H1V14.5zM21.1.5h1.2v9.4h-1.2V.5zM46.3 21h1.5v10.8h-1.5V21.1zM49 14.5h1.2v10.7H49V14.5zM41.7 24.6h1.9v10.7h-1.9V24.6zM35.4 27.1h2.2v10.7h-2.2V27.1zM28.1 28.6h2.4v10.7h-2.4V28.6zM20.5 28.6H23v10.7h-2.4V28.6zM13.4 27.1h2.2v10.7h-2.2V27.1zM7.6 24.6h1.8v10.7H7.6V24.6zM3.4 21H5v10.8H3.4V21zM28.7.3H30v9.5h-1.2V.3zM36 2H37v9.6H36V2zM42 4.5h1.3V14H42V4.5zM46.4 8.2h1.2v9.5h-1.2V8.2zM13.9 2H15v9.6h-1.2V2zM7.9 4.5h1.2V14H8V4.5zM3.6 8.2h1.2v9.5H3.6V8.2zM76.4 8.8L76.3 7V.3h-.7v3.6c-.5-.8-1-1.2-2-1.2-1.7 0-2.5 1.5-2.5 3 0 1.7.8 3.2 2.6 3.2.9 0 1.4-.3 1.9-1.1v1h.8zm-.8-3c0 1.2-.4 2.5-1.8 2.5s-2-1.3-2-2.5.5-2.5 1.9-2.5 1.9 1.3 1.9 2.5zm7.1.1c0-1.5-.5-3.1-2.4-3.1-1.8 0-2.6 1.4-2.6 3.1 0 1.7.7 3 2.6 3 1.3 0 2.2-.7 2.4-2H82c-.1 1-.7 1.5-1.7 1.5-1.3 0-2-1.1-2-2.3v-.2h4.4zm-.7-.5h-3.6c.1-1 .7-2 2-2 1 0 1.6.8 1.6 2zm6.8 3.4v-6H88V6c0 1.2-.5 2.3-1.8 2.3s-1.5-1-1.5-2V2.8H84v3.7c0 1.5.5 2.4 2 2.4 1 0 1.5-.4 2-1v.9h.7zm4.2 0v-.6h-.6c-.7 0-.8-.3-.8-1V3.5h1.3v-.6h-1.3V1.3l-.7.3v1.2h-1.2v.6H91v4.2c0 .8.4 1.2 1.3 1.2h.8zM98 7c0-2.1-3.5-1.3-3.5-2.8 0-.7.8-1 1.4-1 .8 0 1.3.3 1.3 1.2h.7c0-1.3-.9-1.8-2-1.8-1 0-2 .5-2 1.7 0 2 3.4 1.2 3.4 2.8 0 .8-.8 1.2-1.5 1.2-.8 0-1.4-.4-1.4-1.3h-.7c0 1.3.9 1.8 2 1.8C97 9 98 8.4 98 7.1zm6-.2h-.6c0 .9-.7 1.5-1.6 1.5-1.4 0-2-1.3-2-2.6s.5-2.6 2-2.6c1 0 1.5.6 1.6 1.5h.7c-.1-1.3-1-2-2.3-2C100 2.7 99 4 99 5.9c0 1.7 1 3 2.8 3 1.2 0 2.1-.7 2.3-2zm6 1.9V5.1c0-1.5-.5-2.3-2.1-2.3-.8 0-1.4.3-2 1V.4h-.6v8.5h.7V5.6c0-1.2.5-2.2 1.8-2.2 1.4 0 1.5 1 1.5 2v3.4h.7zm6.4-2.9c0-1.5-.5-3.1-2.4-3.1s-2.7 1.4-2.7 3.1c0 1.7.8 3 2.6 3 1.3 0 2.2-.7 2.4-2h-.6c-.2 1-.8 1.5-1.7 1.5-1.3 0-2-1.1-2-2.3v-.2h4.4zm-.8-.5H112c.1-1 .7-2 2-2 1 0 1.6.8 1.6 2zm6 1.7c0-2.1-3.5-1.3-3.5-2.8 0-.7.8-1 1.4-1 .8 0 1.3.3 1.3 1.2h.7c0-1.3-.9-1.8-2-1.8-1 0-2 .5-2 1.7 0 2 3.5 1.2 3.5 2.8 0 .8-.9 1.2-1.5 1.2-1 0-1.5-.4-1.5-1.3h-.7c0 1.3.9 1.8 2.1 1.8 1.2 0 2.3-.5 2.3-1.8zM80.5 14.6v-1.7H79v1.7h1.5zm0 14v-11H79v11h1.3zM77 13.8v-1l-1.4-.1c-3 0-2.5 2.7-2.5 4.9h-2.2v1h2.2v9.8h1.3v-9.9h2.4v-1h-2.4V16c0-1.5.3-2 1.8-2h.8zm7.4 14.6V13h-1.3v15.6h1.3zm18.2 0v-6.2c0-2.7-.5-4.8-3.7-4.8-1.7 0-3 .7-3.7 2.4-.6-1.7-1.7-2.4-3.4-2.4-1.6 0-2.6.7-3.4 2v-1.9H87v10.9h1.3v-6c0-2 1-3.9 3.1-3.9 2.3 0 2.7 1.6 2.7 3.5v6.4h1.3v-6c0-2.2.6-3.9 3-3.9 2.2 0 2.8 1.5 2.8 3.3v6.6h1.3zm4.1-14V13h-1.5v1.7h1.5zm-.1 14V17.7h-1.3v10.8h1.3zm11.3 0V22c0-2.7-1-4.4-3.8-4.4-1.6 0-2.7.6-3.5 2l-.1-1.9h-1.3v10.9h1.4v-5.8c0-2.1.8-4 3.3-4 2.4 0 2.6 1.7 2.6 3.7v6.1h1.4zm9.9-3c0-4-6.4-2.4-6.4-5.2 0-1.4 1.4-1.9 2.5-1.9 1.4 0 2.3.7 2.3 2.2h1.4c-.1-2.3-1.7-3.2-3.8-3.2-1.8 0-3.7 1-3.7 3 0 3.9 6.4 2.3 6.4 5.3 0 1.4-1.5 2.1-2.7 2.1-1.6 0-2.7-.8-2.7-2.4h-1.3c0 2.4 1.7 3.4 3.9 3.4 2 0 4-1 4-3.4zm6.4 3v-1.1l-1 .1c-1.3 0-1.5-.6-1.5-1.8v-7h2.5v-1h-2.5v-2.9l-1.3.6v2.3h-2v1h2v7.6c0 1.6.8 2.3 2.3 2.3h1.5zm3-14V13h-1.6v1.7h1.6zm-.2 14V17.7h-1.3v10.8h1.3zm7.2 0v-1.1l-1 .1c-1.3 0-1.5-.6-1.5-1.8v-7h2.4v-1h-2.4v-2.9l-1.3.6v2.3h-2.1v1h2v7.6c0 1.6.8 2.3 2.4 2.3h1.5zm10.2 0V17.7H153v5.6c0 2.2-.8 4.2-3.3 4.2-2.2 0-2.7-1.7-2.7-3.7v-6.1h-1.3v6.6c0 2.7 1 4.3 3.8 4.3 1.6 0 2.6-.5 3.5-1.8v1.7h1.4zm7 0v-1.1l-1 .1c-1.3 0-1.5-.6-1.5-1.8v-7h2.5v-1h-2.5v-2.9l-1.3.6v2.3h-2v1h2v7.6c0 1.6.8 2.3 2.3 2.3h1.5zM80.5 34.1v-1.6H79V34h1.5zm0 14V37H79v11h1.3zM77 33.3v-1h-1.4c-3 0-2.5 2.6-2.5 4.8h-2.2v1h2.2V48h1.3V38h2.4v-1h-2.4v-1.6c0-1.6.3-2.1 1.8-2.1h.8zM84.4 48V32.5h-1.3V48h1.3zm18.2 0v-6.2c0-2.7-.5-4.8-3.7-4.8-1.7 0-3 .8-3.7 2.4-.6-1.7-1.7-2.4-3.4-2.4-1.6 0-2.6.7-3.4 2v-1.9H87V48h1.3v-6c0-2 1-3.9 3.1-3.9 2.3 0 2.7 1.6 2.7 3.5V48h1.3v-6c0-2.2.6-4 3-4 2.2 0 2.8 1.5 2.8 3.4V48h1.3zm18 0v-6.2c0-2.7-.4-4.8-3.6-4.8-1.7 0-3 .8-3.7 2.4-.6-1.7-1.7-2.4-3.4-2.4-1.6 0-2.6.7-3.4 2v-1.9h-1.3V48h1.3v-6c0-2 1-3.9 3.1-3.9 2.3 0 2.7 1.6 2.7 3.5V48h1.3v-6c0-2.2.6-4 3-4 2.2 0 2.8 1.5 2.8 3.4V48h1.3zm11.4 0V37.1h-1.3v5.7c0 2.2-.8 4.3-3.3 4.3-2.3 0-2.7-1.8-2.7-3.8V37h-1.3v6.7c0 2.7 1 4.3 3.8 4.3 1.6 0 2.6-.5 3.5-1.8V48h1.3zm9.9-3c0-4-6.4-2.4-6.4-5.2 0-1.3 1.4-1.8 2.5-1.8 1.4 0 2.3.6 2.3 2.1h1.4c-.1-2.2-1.7-3.2-3.8-3.2-1.8 0-3.7 1-3.7 3 0 4 6.4 2.3 6.4 5.3 0 1.4-1.5 2.1-2.7 2.1-1.6 0-2.7-.7-2.7-2.4H134c0 2.4 1.7 3.4 3.9 3.4 2 0 4-1 4-3.4zm10.5-2.2c0-2.9-1-5.8-4.4-5.8-3.4 0-4.9 2.7-4.9 5.8 0 3 1.5 5.5 4.8 5.5 2.4 0 4-1.3 4.4-3.7h-1.2c-.3 1.6-1.3 2.7-3 2.7-2.4 0-3.6-2-3.6-4.2v-.3h7.9zm-1.4-1h-6.5c.1-2 1.2-3.8 3.4-3.8 2 0 3.1 1.7 3.1 3.6v.2zm12 6.2l-.1-3.2V37h-1.3v5.7c0 2.2-.8 4.3-3.3 4.3-2.3 0-2.7-1.8-2.7-3.8V37h-1.3v6.7c0 2.7 1 4.3 3.8 4.3 1.6 0 2.6-.5 3.5-1.8V48h1.3zm18 0v-6.2c0-2.7-.5-4.8-3.7-4.8-1.7 0-2.9.8-3.7 2.4-.6-1.7-1.6-2.4-3.4-2.4-1.5 0-2.6.7-3.3 2l-.1-1.9h-1.3V48h1.4v-6c0-2 .9-3.9 3-3.9 2.3 0 2.7 1.6 2.7 3.5V48h1.3v-6c0-2.2.7-4 3.1-4 2.1 0 2.7 1.5 2.7 3.4V48h1.3z"/></g><defs><clipPath id="clip0"><path fill="#fff" d="M1 .3h180v48H1z"/></clipPath></defs></svg>