<svg xmlns="http://www.w3.org/2000/svg" width="138" height="76" fill="none"><g fill="#737373" clip-path="url(#clip0)"><path d="M86.8 17.4v-2c0-5-.6-7-3.3-7h-2.2v16.5h2c2.3 0 3.5-1.4 3.5-7.5zM105.3 51.4c1.3 0 1.8-.8 1.8-4V43c0-3.1-.6-4-1.8-4-1.1 0-1.8.9-1.8 4v4.3c0 3.2.5 4 1.8 4zM71.5 49.3c0 1.4.5 2.1 1.4 2.1 1.3 0 2-1.4 2-3.3V45l-1.4 1c-1.7 1.2-2 1.8-2 3.3zM101.5 25.4c1.7 0 2.6-.8 2.6-6.5v-5c0-5-.9-6-2.6-6-1.7 0-2.6 1-2.6 6v5c0 5.7.8 6.5 2.6 6.5zM15.3 41.5c0-1.3-.4-2.3-1.7-2.3-1.3 0-1.7 1-1.7 2.3V43h3.4v-1.5z"/><path d="M64.5.1v25.6H0V59h69.6V75H138V.1H64.5zM13.6 51.4c.9 0 1.5-.9 1.6-1.8 0-1.8.8-2.2 2-2.2 1 0 2 .4 2 2 0 3.2-2.2 5.1-5.5 5.1-5.3 0-6-2.9-6-7.4v-3.7c0-4.5.6-7.4 6-7.4 4.1 0 5.5 2.3 5.5 7 0 1.6-.2 2.8-2.2 2.8h-5.2v1.8c0 2.1.2 3.8 1.8 3.8zM34 52c0 1.7-.8 2.4-2 2.4s-2-.9-2-2c-.7 1.4-2 2-3.5 2-3.6 0-4.3-3.2-4.3-6.9V43c0-3.6.7-6.9 4.3-6.9 1.4 0 2.8.8 3.5 2v-5.4c0-1.7.8-2.4 2-2.4s2 .8 2 2.4V52zm15.7 0c0 1.7-.8 2.4-2 2.4s-2-.7-2-2.3a3.9 3.9 0 01-3.8 2.3c-2.2 0-3.8-1.4-3.8-4.4V38.4c0-1.6.8-2.4 2-2.4s2 .8 2 2.4v10.8c0 1.3.6 1.9 1.5 1.9 1.4 0 2.1-1 2.1-3.2v-9.5c0-1.6.8-2.4 2-2.4s2 .8 2 2.4v13.7zm9.4-.7c.7 0 1.4-.4 1.5-1.8 0-2.3.7-2.9 2-2.9 1.2 0 2 .9 2 2.3 0 1.8-.9 5.5-5.5 5.5-5.3 0-5.8-3.4-5.8-7.6v-3.2c0-4.3.5-7.7 5.8-7.7 4.5 0 5.4 3.3 5.4 4.8 0 1.6-.8 2.3-2 2.3-1.3 0-2-.6-2-2.3 0-1-.6-1.6-1.4-1.6-1.6 0-1.7 1.8-1.7 4.1v4c0 2.8.4 4 1.7 4zM94.4 14c0-8.6 3.5-9.7 7-9.7 3.7 0 7.2 1 7.2 9.7v4.9c0 8.8-3 10-7.1 10-4 0-7.1-1.2-7.1-10v-5zM77 7.3c0-1.7.7-2.4 2.3-2.4H85c4.5 0 6.3 3.2 6.3 10.3v3c0 7-2.4 10.2-6.5 10.2h-5.5c-1.6 0-2.3-.8-2.3-2.4V7.3zm10.1 47c-3 0-4-1.6-4-3.3V39.4h-.4c-1.2 0-1.8-.4-1.8-1.4 0-1.2.6-1.5 1.8-1.5h.4v-3c0-1.7.8-2.5 2-2.5s2 .8 2 2.4v3h.9c1.2 0 1.7.4 1.7 1.6 0 1-.5 1.4-1.7 1.4h-1v10.4c0 .7.3 1.2 1.2 1.2.9 0 1.4.4 1.4 1.4 0 1.4-.8 1.9-2.5 1.9zm1.2 5.4c0 .5-.4.8-.8.8a.8.8 0 010-1.6c.5 0 .8.3.8.8zm1.5-.8a.8.8 0 010 1.6.8.8 0 010-1.6zm-14.7-6.6a3.8 3.8 0 01-3.7 2.2c-2.3 0-4-1.4-4-4.7 0-2.7.7-4.2 2.7-5.3l3.6-1.9c.9-.4 1.2-1 1.2-1.8 0-1-.5-1.8-1.5-1.8-1.4 0-1.8.7-2 2.1 0 .8-.8 1.3-1.8 1.3-.9 0-2.1-.5-2.1-1.7 0-3 2.5-4.7 5.5-4.7 5.3 0 5.9 2.4 5.9 5.3v9l.2 2.7c0 1-.7 1.5-2 1.5-1 0-2-.5-2-2.2zm9.2 17.3c0 .5-.3.8-.8.8a.8.8 0 01-.8-.8V63l-1.4 6.8c0 .2-.2.5-.6.5-.5 0-.6-.3-.6-.5L78.7 63v6.5c0 .5-.4.8-.9.8a.8.8 0 01-.8-.8v-7.3c0-.8.3-1.2 1.4-1.2.8 0 1.3.3 1.5 1.3l.8 4.4.8-4.4c.2-1 .7-1.3 1.5-1.3 1 0 1.3.4 1.3 1.2v7.3zm7-1.7c0 1.6-.9 2.6-2.7 2.6-1.7 0-2.7-1-2.7-2.6v-6c0-.5.4-.8.9-.8.4 0 .8.3.8.9v5.7c0 1 .4 1.5 1 1.5.7 0 1-.5 1-1.5V62c0-.6.4-.9.9-.9s.8.3.8.9v5.9zM93.7 30c1.3 0 2.3 1 2.3 2.3a2.3 2.3 0 11-4.5 0c0-1.3 1-2.3 2.2-2.3zm-2 22V38.4c0-1.6.9-2.4 2-2.4 1.3 0 2 .8 2 2.4v13.7c0 1.7-.8 2.4-2 2.4s-2-.7-2-2.4zm7 17.4c0 .6-.4 1-.8 1-.7 0-1-.2-1.3-1l-2-5v5c0 .6-.4 1-.8 1a.8.8 0 01-.9-1V62c0-.6.4-.9 1-.9.5 0 .8.1 1.1.8l2 5v-5c0-.5.4-.8.9-.8.4 0 .8.3.8.9v7.5zm.7-26.6c0-3.8 1.2-6.9 6-6.9 4.7 0 5.9 3 5.9 6.9v4.8c0 3.8-1.2 6.8-6 6.8-4.7 0-6-3-6-6.8v-4.8zm3.4 27.6c-2.6 0-2.7-2.2-2.7-4v-1.3c0-3.2.9-4.1 2.9-4.1 1.7 0 2.5 1 2.5 2.2 0 .6-.2 1-.8 1-.7 0-.8-.3-1-1 0-.6-.3-1-.7-1-.8 0-1.1.4-1.1 3.1v.5c0 2.2 0 3.3 1 3.3.5 0 .9-.4.9-1 0-1 .2-1.3.9-1.3.6 0 .8.4.8 1 0 1.8-1 2.6-2.7 2.6zm9.5-1c0 .6-.3 1-.8 1a.8.8 0 01-.8-1v-3.3h-2.2v3.4c0 .5-.4.8-.9.8a.8.8 0 01-.8-.8v-7.7c0-.5.4-.8.8-.8.5 0 .9.3.9.8v3h2.2v-3c0-.5.3-.8.8-.8s.8.3.8.8v7.7zm5.9.8h-3.3c-.6 0-1-.3-1-1v-7.1c0-.6.4-1 1-1h3.2c.6 0 .9.4.9.8 0 .5-.3.8-.9.8h-2.5v2h2.4c.6 0 .8.4.8.8s-.2.7-.8.7h-2.4v2.5h2.6c.6 0 .9.3.9.7 0 .5-.3.8-.9.8zm8-.8c0 .6-.4 1-.8 1-.7 0-1-.2-1.3-1l-2-5v5c0 .6-.4 1-.8 1a.8.8 0 01-.8-1V62c0-.6.3-.9.9-.9.5 0 .8.1 1.1.8l2 5v-5c0-.5.4-.8.9-.8.4 0 .8.3.8.9v7.5zm.1-17.4c0 1.7-.8 2.4-2 2.4s-2-.7-2-2.4V41.4c0-1.3-.7-1.9-1.5-1.9-1.3 0-2 1-2 3.2V52c0 1.7-.9 2.4-2 2.4-1.3 0-2-.7-2-2.4V38.4c0-1.6.8-2.4 2-2.4s2 .8 2 2.3a3.9 3.9 0 013.7-2.3c2.2 0 3.8 1.4 3.8 4.4v11.7zm-2-23.3c-1.3 0-1.7-.6-2.3-1.8l-3.7-7.8-1.7 2.7v4.6c0 1.4-1 2.3-2.2 2.3-1.2 0-2.2-.9-2.2-2.3V6.7c0-1.3 1-2.2 2.2-2.2 1.2 0 2.2.9 2.2 2.2v8.6l5.2-9.5c.6-1 1.1-1.3 2-1.3 1.2 0 2.2.7 2.2 1.9 0 .4-.2 1.1-.6 1.6l-4.2 7 5 10.4c.3.5.5 1 .5 1.5 0 1-.8 1.9-2.3 1.9zm7.3 0a2.5 2.5 0 010-5 2.5 2.5 0 010 5z"/><path d="M28 39.3c-1.3 0-1.7 1.1-1.7 5v2.3c0 3 .2 4.6 1.6 4.6 1.6 0 2-1.8 2-4.3v-3.3c0-3.6-1-4.3-2-4.3z"/></g><defs><clipPath id="clip0"><path fill="#fff" d="M0 .1h138v75H0z"/></clipPath></defs></svg>