<svg xmlns="http://www.w3.org/2000/svg" width="179" height="49" fill="none"><g fill="#737373" clip-path="url(#clip0)"><path d="M64.6 18h4c2.2-.3 4.2.6 4.2 3.2 0 2.5-2 3.4-4.2 3.4h-2.2v5.1h-1.6l-.2-11.8zm4.3 5c.2 0 2.2.2 2.2-1.8s-2-1.8-2.2-1.8h-2.5v3.8l2.5-.1zM79.6 24.7c0-1.5 0-2.3-1.7-2.3-.8 0-1.5.5-1.5 1.3h-1.6c.1-1.8 1.5-2.5 3.1-2.5 1.7 0 3.4.5 3.4 2.9v5.6H80c-.2 0-.5 0-.5-.2v-1.1c-.5 1-1.5 1.5-2.5 1.5-1.5 0-2.8-.7-2.8-2.4 0-2.3 2-3 4-3h1.3v.2zM75.4 18H77v1.7h-1.5v-1.7zm2.5 7.8c-1 0-2.1.3-2.1 1.7 0 1 .6 1.5 1.6 1.5 1.9 0 2.2-1.7 2.2-3.2h-1.7zm.7-7.8H80v1.7h-1.5v-1.7zM89.6 18H91v11.7h-1.7v-1.2c-.5 1.2-1.6 1.5-2.8 1.5-2.5 0-3.3-2.1-3.3-4.3 0-2.1 1.1-4.3 3.6-4.3 1 0 2.2.3 2.5 1.3l.2-4.8zm-2.3 10.9c1.8 0 2.3-1.9 2.3-3.4 0-1.4-.5-3.3-2.3-3.3-1.9 0-2.4 1.7-2.4 3.3 0 1.7.5 3.4 2.4 3.4zM98.6 24.7c0-1.5 0-2.3-1.7-2.3-.8 0-1.5.5-1.5 1.3h-1.7c0-1.8 1.5-2.5 3.2-2.5 1.7 0 3.3.5 3.3 2.9v5.6h-1c-.1 0-.5 0-.5-.2v-1.1c-.5 1-1.5 1.5-2.5 1.5-1.5 0-2.8-.7-2.8-2.4 0-2.3 2-3 4-3h1.2v.2zm-1.5 1c-1 0-2.2.3-2.2 1.7 0 1 .7 1.5 1.7 1.5 1.8 0 2.1-1.7 2.1-3.2h-1.6zM108.6 21.6h1.6l-.1 1.5v5.8c0 3-1.4 4.1-4.4 4.1-1.8 0-3-.8-3-2.6h1.7c0 1.1.8 1.5 2 1.5 2.2 0 2.2-1.9 2.3-3.7-.5 1-1.6 1.3-2.6 1.3-2.5 0-3.5-1.8-3.5-4.1s1.3-4.2 3.8-4.2c.8 0 1.7.4 2.2 1.2l.1.3-.1-1.1zm-2.4 6.8c1.7 0 2.4-1.5 2.4-3 0-1.7-.7-3-2.4-3-1.8 0-2.3 1.7-2.3 3s.5 3 2.3 3zM120.6 25.5c0 2.5-1.4 4.4-4.2 4.4-2.7 0-4.2-1.9-4.2-4.4 0-2.4 1.4-4.3 4.2-4.3 2.8 0 4.2 1.9 4.2 4.3zm-4 3.4c1.8 0 2.5-1.5 2.5-3.2 0-1.8-.7-3.1-2.5-3.1-1.9 0-2.5 1.5-2.5 3.1 0 1.7.6 3.2 2.5 3.2zM128.7 21.6h1.7l-.2 1.5v5.8c0 3-1.3 4.1-4.3 4.1-1.8 0-3-.8-3-2.6h1.7c0 1.1.8 1.5 1.8 1.5 2.1 0 2.1-1.9 2.3-3.7-.5 1-1.7 1.3-2.7 1.3-2.4 0-3.4-1.8-3.4-4.1s1.3-4.2 3.8-4.2c.8 0 1.6.4 2.1 1.2 0 0 .2.5.2.3v-1.1zm-2.5 6.8c1.7 0 2.3-1.5 2.3-3 0-1.7-.6-3-2.3-3-1.8 0-2.3 1.7-2.3 3s.5 3 2.3 3zM132.9 18h1.8v1.6H133v-1.7zm.1 3.6h1.5v8.1H133v-8.1zM140.2 21.2c1.5 0 3.3.7 3.2 2.5h-1.7c0-1-.7-1.3-1.7-1.3-.8 0-1.5.3-1.5 1.3 0 .9 1.4 1 2 1.2 1.4.5 3 .6 3 2.5 0 2-2 2.6-3.6 2.6-1.7 0-3.2-.8-3.2-2.6h1.7c0 1 .6 1.5 1.6 1.5s1.9-.4 1.9-1.5c0-1.9-5-.5-5-3.7 0-1.6 1.8-2.5 3.3-2.5zM150.4 24.2c-.2-1-.5-1.8-1.7-1.8-1.5 0-2 1.3-2 3.1 0 1.9.5 3.2 2 3.2 1 0 1.7-.7 1.8-1.8h1.5c-.1 1.8-1.5 3-3.3 3-2.7 0-3.7-1.9-3.7-4.4 0-2.3 1.2-4.4 3.9-4.4 1.6 0 3 1.1 3.1 2.8h-1.6M153.9 29.7V17.9h1.5v4.7c.6-1 1.5-1.4 2.6-1.4 2.2 0 2.8 1.5 2.8 2.9v5.4h-1.4v-4.8c0-1.5-.4-2.3-1.9-2.3-.6 0-1.5.5-1.8 1.2-.3.8-.3 1.5-.3 1.8v4.1l-1.5.2zM165 25.9c-.2 1.5.5 3 2 3 1.2 0 1.8-.5 2-1.7h1.7C170.5 29 169 30 167 30c-2.7 0-3.7-1.8-3.7-4.3 0-2.3 1.2-4.5 3.9-4.5 2.5 0 3.6 1.7 3.6 3.9v.8H165zm4.2-1c0-1.3-.7-2.5-2.2-2.5-1.3 0-2 1.2-2 2.5h4.2zM175.7 21.2c1.5 0 3.3.7 3.1 2.5h-1.6c0-1-.7-1.3-1.7-1.3-.8 0-1.5.3-1.5 1.3 0 .9 1.3 1 2 1.2 1.3.5 3 .6 3 2.5 0 2-2 2.6-3.7 2.6-1.6 0-3.1-.8-3.1-2.6h1.6c0 1 .7 1.5 1.7 1.5s1.8-.4 1.8-1.5c0-1.9-5-.5-5-3.7.2-1.6 1.9-2.5 3.4-2.5zM66.3 36h-1.7v11.8h1.7V36zM70.8 40.8a3 3 0 012.5-1.5c.5 0 3.1.2 3.1 2.9v5.6H75v-5.1c0-1.4-.5-2.2-1.8-2.2 0 0-.8 0-1.5.7-.2.1-.7.6-.7 2.1v4.5h-1.5v-8.1H71l-.1 1.1zM82 39.3c1.4 0 3.3.7 3 2.5h-1.6c0-1-.6-1.3-1.6-1.3-.9 0-1.5.3-1.5 1.3s1.3 1 2 1.2c1.3.5 3 .7 3 2.5 0 2-2 2.6-3.7 2.6-1.7 0-3.2-.8-3.2-2.6h1.7c0 1 .7 1.5 1.7 1.5s1.8-.4 1.8-1.5c0-1.8-5-.5-5-3.7 0-1.6 1.8-2.5 3.3-2.5zM87.6 39.5v-1.8l1.5-.5v2.1h1.8v1.2h-1.8v5.3c0 .7.5.8 1 .8l.8-.1v1.1l-1 .2c-.3 0-.6 0-1-.2-.1 0-.6-.1-.8-.5-.3-.3-.3-.5-.3-1.5v-5.1h-1.4v-1.2l1.2.2zM92.7 36h1.9v1.7h-1.9V36zm.2 3.5h1.5v8.1H93v-8.1zM97.6 39.5v-1.8l1.5-.5v2.1h1.8v1.2h-1.8v5.3c0 .7.5.8 1 .8l.8-.1v1.1l-1 .2c-.3 0-.7 0-1-.2-.2 0-.7-.1-1-.5-.3-.3-.3-.5-.3-1.5v-5.1h-1.4v-1.2l1.4.2zM108.4 39.5h1.7v8.1h-1.5v-1.1c-.7 1-1.7 1.5-2.9 1.5-1.6 0-2.6-1.4-2.6-3v-5.5h1.5v4.8c0 1.5.3 2.5 1.8 2.5.7 0 1.5-.3 1.8-1.2.4-.8.4-1.6.4-2l-.2-4.1zM113 39.5v-1.8l1.6-.5v2.1h1.8v1.2h-1.8v5.3c0 .7.5.8 1 .8l.8-.1v1.1l-1 .2c-.3 0-.7 0-1-.2-.2 0-.7-.1-1-.5-.3-.3-.3-.5-.3-1.5v-5.1h-1.4v-1.2l1.4.2zM47.5 18h-9.7v22.8H9.7V30h7.1c11.3 0 12.8-7.6 12.8-12.6 0-8-3.5-13-12.3-13H0v7h14.7c4.1 0 5.1 3.2 5.1 7 0 3-2 6.2-4.6 6.2H0v23.2h47.5V17.9zm.8-8.4l-3.8-9-8.9 3.7 3.7 8.8 9-3.5z"/></g><defs><clipPath id="clip0"><path fill="#fff" d="M0 .1h179v48H0z"/></clipPath></defs></svg>