<svg xmlns="http://www.w3.org/2000/svg" width="158" height="71" fill="none"><g fill="#737373" clip-path="url(#clip0)"><path d="M131.6 45.6v-.3-8.9c0-.4 0-.4.4-.4h3.5c.3 0 .4 0 .4.4v15.8c0 .4 0 .4-.4.4H132c-.3 0-.5-.1-.6-.3l-7.1-9.8c-.1 0 0 .1 0 .2v9.5c0 .4 0 .4-.4.4h-3.5c-.3 0-.4 0-.4-.4V36.4c0-.3 0-.4.4-.4h4c.4 0 .5 0 .7.3 2.2 3.1 4.6 6 6.6 9.3zM158 44.2c0 4.7-3.1 8.1-7.9 8.6-2 .2-4 0-5.8-.7a8.2 8.2 0 01-5.1-8.2 8.3 8.3 0 016.2-7.8c2.2-.6 4.4-.6 6.6 0 3.7 1.1 6 4.2 6 8.1zm-13.6-.2c0 1 .1 1.9.4 2.7.7 1.6 2 2.4 3.9 2.4 1.8 0 3.2-.9 3.7-2.5.6-1.6.6-3.2 0-4.8-.3-.9-1-1.5-1.8-2-2.7-1.2-5.6.3-6.1 3.1l-.1 1.1zM34.7 44.3v-7.8c0-.4 0-.5.4-.5h4c.4 0 .4 0 .4.4v5.3c0 .3.1.4.5.4h5.6c.4 0 .4 0 .4-.4v-5.2c0-.5.1-.5.5-.5h4c.3 0 .4 0 .4.5v15.7c0 .3-.1.4-.5.4h-4c-.3 0-.4 0-.4-.4v-5.7c0-.4 0-.5-.5-.5H40c-.4 0-.5.1-.5.5v5.7c0 .3 0 .4-.4.4h-4c-.4 0-.4 0-.4-.4v-8zM7.7 31.2c2 0 4 .4 5.8 1.5.4.2.5.3.2.7l-1.5 2.8c-.2.2-.3.3-.6.1a7.3 7.3 0 00-4.5-1c-1.2.2-1.9 1-1.8 2 0 .6.4 1 .9 1.3l2 1 3.3 1.6a5.9 5.9 0 013 6.3c-.4 2.7-2 4.4-4.6 5a12 12 0 01-9.5-1.2c-.4-.3-.5-.5-.2-.9l1.5-2.6c.2-.3.3-.4.7-.2 1.4 1 3 1.4 4.7 1.3.6 0 1.1-.2 1.6-.5 1.1-.7 1.2-2.1 0-3-.6-.5-1.4-.8-2.2-1.1l-3.2-1.6A6.3 6.3 0 01.8 35c1-2.3 2.9-3.3 5.2-3.7l1.7-.1zM55 46.7v-3.2-1.3-5.7c0-.4 0-.6.4-.5h4c.4 0 .5.1.5.5v8.7L60 47c.2 1 .8 1.7 1.8 2h2c1.1-.1 1.8-.8 2.1-1.8a8 8 0 00.2-2.1v-8.7c0-.3 0-.4.5-.4H70c.4 0 .5 0 .5.4v4.4c0 2.6.2 5.1-.5 7.7l-.1.3a6 6 0 01-4.1 3.7l-2 .4a17 17 0 01-3.4-.2c-2.1-.4-3.9-1.4-4.8-3.4-.4-.9-.6-1.7-.7-2.6zM16.9 44.3c0-4.6 3-8 7.8-8.5 1.9-.2 3.8-.2 5.6.5 1.5.6 1.5.6.7 2l-1 1.9c-.3.3-.4.3-.7.1a5.6 5.6 0 00-3.6-.7c-1.8.2-3 1.3-3.4 3a6.6 6.6 0 000 3.4c.6 2.2 2.4 3.3 4.9 3 .9-.2 1.7-.5 2.5-1 .3-.2.4-.1.5.2l1.5 2.7c.1.3 0 .4-.2.6-2 1.2-4.1 1.5-6.3 1.3a9.9 9.9 0 01-4.2-1 8 8 0 01-4.1-7.5zM48.5 60l-1.6 5.6c-.1.4-.3.5-.6.5h-1.8c-.3 0-.4-.1-.4-.4l-2.6-9c0-.2 0-.3.3-.3H44c.3 0 .4.2.5.5l1.2 5 .2.1 1.2-5c.1-.4.3-.6.7-.6h1.6c.4 0 .5.1.6.5l1.3 5.3c.5-1.8 1-3.5 1.3-5.2.1-.4.3-.6.7-.6h1.8c.3 0 .4.3.3.5-.7 1.6-1 3.3-1.5 5l-1.1 3.8c-.1.2-.2.4-.6.4h-1.7c-.4 0-.5-.2-.6-.5l-1.3-5.3-.1-.3zM111.8 52.6h-1c-.3 0-.2-.3-.2-.5V36.6c0-.5.1-.7.6-.6h3.9c.3 0 .4 0 .4.3v16c0 .3-.1.3-.4.3h-3.3zM109.7 60.5V57c0-.2 0-.4.2-.6h2.2c.4 0 .6.1.7.4 1.2 1.7 2.6 3.4 3.8 5.3l-.1-5c0-.6.2-.7.6-.7h1.4c.4 0 .5.1.5.5v8.7c0 .4 0 .5-.5.5-.7 0-1.4.1-2-.1-.5-.3-.8-1-1.2-1.5l-3-4.2v4.4c0 .5.2 1-.1 1.3-.3.2-.8 0-1.3 0-1.1 0-1.1 0-1.1-1.1v-4.4zM69.2 61.4c-.2.8-.3 1.6-.7 2.3a5 5 0 01-2 2c-.5.2-1 .5-1.6.5-1.2 0-2.4.2-3.6-.4a5 5 0 01-2.9-3.4c-.3-1.2 0-2.3.4-3.4a5 5 0 013.3-2.5c1.1-.3 2.3-.3 3.4 0 2 .6 3.2 2 3.6 4V61.4zm-8-.2c0 1.4.6 2.3 1.6 2.7 1.3.5 2.7-.1 3.1-1.3.7-1.6 0-3.4-1.2-4h-.2c-1.8-.6-3.2.6-3.2 2.6zM116.3 30.7c-.3-.6-.4-1.3-.6-2l-1.2-6.6c0-.3-.2-.4-.5-.5l-3.7-1.1-5.4-1.8c-.1 0-.2 0-.2-.2a33.5 33.5 0 009.1.5c1-.2 1.9-.7 2.5-1.6A17 17 0 00118 12l.4-1.7V19c-.1.4.1.4.4.5 2.8 1 5.7 1.8 8.5 2.7l.6.2v.1l-1.7-.2c-2.1-.3-4.3-.6-6.5-.3-2 .2-2.6.8-3 2.7-.5 1.8-.5 3.7-.5 5.5v.6zM104.9 66h-5.6c-.4 0-.5 0-.5-.4v-4.4V57c0-.4 0-.6.5-.5h6.1v1.7c0 .3 0 .4-.4.4H102c-.4 0-.5 0-.5.5 0 1 0 1 1.1 1h2c.2 0 .3.1.3.4v1.3c0 .3-.1.4-.4.4H102c-.3 0-.4 0-.4.4 0 1.3 0 1.3 1.3 1.3h2.1l.5.1v1.3c0 .6 0 .9-.6.8zM93.2 23.7l-.2-1.2-.4-2.3c-.1-.4-.3-.6-.7-.7-2.4-.8-4.7-1.5-7-2.4l3.4.4c1.3.1 2.5.2 3.8 0 .5-.2 1.1-.2 1.3-.8.8-.5 1-1.3 1.3-2.1.4-1.1.8-2.3 1-3.5v5.7c-.1 1.2-.2.9.8 1.2l6 1.9c.1 0 .2 0 .3.2l-1.8-.2c-.2 0-.5-.2-.8 0h-.1c-.2-.3-.4-.2-.6-.2l-3.3.1c-1 .2-1.5.7-1.8 1.6-.3 1-.4 2-.4 2.9-.2.8 0 1.6-.1 2.4l-.3-1.3c-.1-.6-.1-1.2-.4-1.7z"/><path d="M117.2 70.1a38 38 0 01-9.3-1.3c-.2 0-.4 0-.6-.2-.1-.1-.6 0-.4-.3.1-.4.2-.7.8-.5 3.6 1 7.4 1.6 11.3 1.4 3.4-.2 6.7-1 9.6-3 3.1-2.2 5-5.2 5.6-9V57c0-.6.4-.6.8-.5.5 0 .2.4.1.6-1 5.9-4.2 9.8-9.8 11.8-2.4 1-5.2 1.3-8 1.3zM95 5.7l3 .3c1 .1 2.1.1 3.2 0 .8-.2 1.4-.6 1.8-1.4.6-1.2 1-2.5 1.2-3.8l.1-.7v5.5c0 .5.1.7.6.8l5.5 1.7.9.3c-1.9-.3-3.7-.5-5.5-.4h-.3c-1.5.1-2 .6-2.4 2l-.3 2v2l-1-4.5c-.3-1.6-.3-1.6-1.8-2l-5-1.7zM85.5 11.9v.5h-.3c0-1.4-.6-2.8-.7-4.2 0-.8-.5-1.1-1.3-1.4l-4.5-1.4c.9-.2 1.6 0 2.5 0 .9.1 1.8.2 2.8 0a2 2 0 001.5-1A12 12 0 0086.7.5l.2-.2V5c-.1.5 0 .7.5.8l4.7 1.5.2.2-1.4-.1c-1-.2-2.2-.2-3.2-.1-1.2 0-1.6.5-2 1.5a8 8 0 00-.2 2v1zM74 17.4c-1.5 2-2.4 4.2-2.7 6.7a18.7 18.7 0 00.4 7.7c0 .7-.2 1-.7 1.3l-.4-1.3-.5-3.9c0-2 .1-3.8.6-5.7.2-1 .6-1.8 1-2.7.8-1.7 2-3.2 3.3-4.5.6-.6 1.2-1.1 1.9-1.5l1.6-.8h.2c.1.4 0 1-.4 1.2-1.5.8-2.8 1.8-4 3.1l-.2.4zM113 14c1.4 0 2.5 1 2.5 2.2 0 1.2-1.2 2.2-2.6 2.2-1.3 0-2.4-1-2.4-2.3 0-1.2 1.2-2.2 2.5-2.2zm-.4.8c-.8 0-1.4.5-1.4 1.2s.6 1.3 1.4 1.3c.8 0 1.4-.6 1.4-1.3 0-.7-.6-1.2-1.4-1.2zM92.6 16.5c-1.3.7-2 .6-3-.4-.6-1-.2-2 .7-2.5.8-.4 2.2-.3 2.8.8.4.8 0 1.5-.5 2.1zM91 14c-.7 0-1.2.5-1.2 1 0 .6.6 1.1 1.2 1.1s1.1-.5 1.2-1c0-.6-.6-1-1.2-1z"/><path d="M100.5 2.4c1 0 1.7.7 1.7 1.6 0 .9-.8 1.5-1.8 1.5s-1.7-.7-1.7-1.6c0-.9.8-1.5 1.8-1.5zm-.4.5c-.5 0-1 .5-1 1s.5.9 1 .9c.6 0 1.1-.4 1.1-1 0-.4-.5-.9-1-.9zM126 31.8c-.8.3-1.2.1-1.6-.4l-3.1-3.4c-.1-.1-.5-.2-.2-.4.2-.2.5-.6.9-.2l2.8 3 1.1 1.4zM83.4 5.1c-1 0-1.6-.7-1.6-1.5 0-.7.8-1.4 1.6-1.4.9 0 1.6.7 1.6 1.5s-.8 1.4-1.6 1.4zm-.3-.7c.5 0 1-.4 1-.8s-.5-.8-1-.8c-.4 0-.9.4-.8.8 0 .4.4.7.8.8zM90.8 31.5h4.5c.4 0 .5.2.5.6v8.2l2.5-3.2 4.3-5.6h5.6c-1 1.5-2.1 2.8-3.1 4.1l-1 1.3-3.2 4c-.3.3-.2.5 0 .8l2.3 3.3 3.3 4.7 2 3h-5.4c-.5 0-.8-.2-1-.5l-1.2-1.7c-.6-1-1.2-2-1.9-2.8v-.2L97.8 46l-2-3-.1.6v8.5c0 .4-.1.5-.5.5h-4.1c-.6 0-.6-.1-.6-.6V32.6 32v-.3h.2zM85 66v-4-1.3V57c0-.3 0-.5.4-.5h2c.3 0 .3.1.3.4v2.8c0 .3.1.4.4.4h3c.4 0 .4-.1.4-.4v-2.3c0-.8 0-.8.8-.9a538.7 538.7 0 011.8 0c.3.2.2.4.2.6v9H91.4v-3.3c0-.4-.1-.5-.5-.5h-2.8c-.4 0-.5.1-.5.5v3c0 .2 0 .4-.4.4h-2.2-.1zM73 63.4c-.9-2.4-.5-5.7 3-6.8l.1-.1h.3c.7-.2 1.4-.2 2-.2a5 5 0 012.4.6c.2.1.3.3.1.5l-.8 1.4c-.1.2-.2.3-.5.1a3 3 0 00-1.7-.3c-1.2 0-2 .6-2.3 1.8V62c.3 1.8 2 2.6 3.9 1.8.7-.3.7-.3 1 .4l.2.3c.5 1 .5 1-.5 1.4l-.6.3c-.3-.1-.6 0-.8 0-1.8.2-3.5 0-4.9-1.3l-1-1.4zM94.2 66zM84.5 17zM85 66zM74.8 44.3v-7.8c0-.4.1-.5.5-.5h3.8c.5 0 .6.1.6.5v11.7c0 .5 0 .7.6.7h5.5c.4 0 .5 0 .5.4v2.9c0 .3 0 .4-.4.4H75.2c-.3 0-.4 0-.4-.4v-8z"/></g><defs><clipPath id="clip0"><path fill="#fff" d="M0 .1h158v70H0z"/></clipPath></defs></svg>