<svg xmlns="http://www.w3.org/2000/svg" width="173" height="61" fill="none"><path fill="#737373" d="M105 18h5.3v9l.1.1 1.3-1.8 5.3-7 .6-.2h5.4l-1.8 2.3-5.7 7.4c-.2.2-.2.4 0 .6a2269.6 2269.6 0 007.8 11.4h-5.7c-.3 0-.4 0-.6-.3l-6.4-9.5-.2-.3v10H105V18.1zM138.6 29.3v10.5h-4.4V22.7h4.6c.1 0 .4 0 .5.2 2 2.6 3.8 5.3 5.7 8 .5.6.8 1.2 1.2 1.9V22.7h4.3v17.1H146.3a.6.6 0 01-.4-.2l-7.2-10.1-.1-.2zM80.9 39.8h-4.3v-17l.2-.1h4.4a709.4 709.4 0 016.2 8.2l1.1 1.9v-10h4.3v17h-4.1c-.2 0-.3 0-.5-.2L81 29.5l-.2-.2v10.5zM11.5 34l.8-2.8L16 20l.6-1.7.2-.2H22l-.6 1.8-7 18.5-.4 1.2-.3.2H9c-.2 0-.2 0-.3-.3l-4-10.3L.6 18.5l-.2-.4h5.3c.3 0 .4 0 .5.2l5 15 .2.7zM153.5 31.2c0-4.4 2.9-7.9 7.4-8.7 2.6-.4 5-.2 7.4 1a8 8 0 014.3 6.3c.3 2 0 3.8-.8 5.6a8 8 0 01-6 4.5c-3.1.6-6.1.3-8.8-1.5a8 8 0 01-3.4-6l-.1-1.2zm5.2 0l.2 1.3c.2 1 .6 2 1.5 2.8 1 .8 2 1 3.3.9 1.5-.1 2.7-1 3.3-2.4.5-1.3.6-2.7.3-4-.2-1-.6-2-1.5-2.7-1-.9-2.3-1-3.6-.8a3.7 3.7 0 00-3 2.6c-.3.8-.3 1.5-.5 2.2zM64 22.3c2.2 0 4.3.5 6.1 1.8a8 8 0 013.3 5.4c.4 2 .1 4-.8 5.8a8 8 0 01-5.7 4.5c-2.4.6-4.8.5-7.2-.5a8.2 8.2 0 01-5.2-6.6 8.7 8.7 0 017-10.1l2.5-.3zm4.5 9h-.1l-.2-1.5c-.3-1.4-1-2.6-2.3-3.2-.8-.4-1.6-.5-2.5-.4-1.3.2-2.4.8-3 2a6.6 6.6 0 00-.5 5 4 4 0 002 2.6c.9.4 1.7.5 2.6.4 1.7-.1 2.8-1 3.4-2.5.3-.7.4-1.6.6-2.4zM42.7 23.7L41 27l-2.6-.8h-1.9c-.4.1-.8.4-1 1 0 .5.3.9.7 1.1l1.7.7c1.2.5 2.4 1 3.4 1.8 1.3 1 2 2.3 2 4-.1 2.8-1.8 4.4-4.1 5-2.7.6-5.2.4-7.7-.7l-.6-.3-.3-.2 1.8-3.5c.8.6 1.6 1 2.5 1.1 1 .2 1.8.2 2.7-.1.7-.2 1-.8.8-1.3-.1-.3-.4-.6-.6-.7-.6-.4-1.3-.6-2-.9-.9-.4-1.8-.8-2.7-1.4-1.8-1-2.4-2.9-2.2-4.9.2-2 1.4-3.3 3.3-4 1.8-.8 3.6-.7 5.4-.4 1.1.2 2.1.6 3.1 1.2zM27.7 39.8h-4.9V22.7h5v17.1zM130 39.8h-4.9v-17h5v17zM51.2 39.8h-4.8V22.7h4.8v17.1zM129.3 20l-.5-2.3-1.2-6.1c0-.3-.2-.5-.4-.6l-9-3-.3-.1 2.9.4c1.8.2 3.6.3 5.4.2 1.5 0 2.6-.7 3.3-2 .8-1.5 1.2-3 1.6-4.6l.4-1.8V4l-.1 4.3c0 .4.1.5.4.6l8.7 2.8a60 60 0 00-2-.2 22.6 22.6 0 00-6.8.1c-.8.3-1.4.8-1.7 1.7-.2 1-.5 2.1-.6 3.2l-.1 3.7zM147.5 46.3h.9c-.2.8-.3 1.7-.6 2.5-1.4 5.6-5.2 9-10.6 10.6-3 .9-6 1-9.1.7-4.6-.4-8.9-1.8-13-3.6-4.7-2-9-4.8-13-8l-2.5-2.1-.2-.2c.3-.3.5-.3.8 0A58.8 58.8 0 00124.3 59c2.8.6 5.7.9 8.5.6 2.8-.3 5.4-1 7.7-2.4a13.8 13.8 0 007-10.8zM116 3.4l-.3.4-2.7-1c-2.6-.9-5.1-1.5-7.8-1.9-3.6-.4-7.1-.4-10.6.7s-6.3 3-8.3 6.1a14.6 14.6 0 00-2.1 6c-.3 2.3-.2 4.5.1 6.7v.2l-.6.2-.3-1.8c-.3-2.7-.3-5.3.5-7.9 1.3-4.7 4.3-7.8 8.8-9.6 2.9-1.2 6-1.6 9-1.5 4.2.1 8.2 1 12 2.5l2.3.9z"/><path fill="#737373" d="M126.2 3.2c1.6 0 2.7 1.5 2.2 2.9-.3 1-1.5 1.7-2.6 1.6-1.2-.2-2-1-2.1-2.1-.2-1.3 1-2.4 2.5-2.4zm-.6 3.5c.8 0 1.5-.6 1.5-1.3 0-.8-.6-1.5-1.4-1.5-.9 0-1.6.6-1.6 1.4 0 .8.7 1.4 1.5 1.4zM138.6 20.4l-.5.4-4.1-4.6.4-.3 4.2 4.5z"/></svg>