<svg xmlns="http://www.w3.org/2000/svg" width="255" height="78" fill="none"><g clip-path="url(#clip0)"><path fill="#fff" d="M23 27c-.3-.6-.6-1.3-.6-2l.1-.9-.9-.5a3.6 3.6 0 01-3.4-4.8c-.7-.4-1.2-1-1.5-1.8l-1-.6a3 3 0 01-.8-.2c-.4.2-1 .3-1.4.3l-1 .4-.1.1c-.4.9-1 1.5-1.8 2l.2 1.1c.1 2-1.7 3.5-3.5 3.5a3 3 0 01-.7 0l-.3.4.2 1.1c0 .6-.2 1.3-.5 1.8 0 1.8-1.6 3.3-3.3 3.5-.5.4-1.1.8-1.8 1l-.7.4v.1l.3 1c.2.4.3.9.3 1.4H23v-.5c-.1-1.3.8-2.5 2-3.1V30a3.8 3.8 0 01-2-3.1zm8.2-21.1l-.8-.8c-.3-.9-.6-.8-.6-.8s-.3-.1-.6.7a4 4 0 01-.8.9v.4h2.8v-.4zm0 1.1h-2.8v2.2h2.8V7zm-.9 2h-1V7.7c.6-.8 1 0 1 0V9zm-6.9 53.2h6v-6.6h-6v6.6zm4.7-4.5c.4-1.6.8 0 .8 0v3.1h-.8v-3zm-2.3 0c.8-1.6 1.5 0 1.5 0v3.1h-1.5v-3zm-1.5 0c.5-1.6.7 0 .7 0v3.1h-.7v-3zm8.2-45.4c-.3-1.7-1-2.2-1.2-2.3h-3c-.3.2-.8.8-1 2.2l-.2.5h5.5l-.1-.4zM29.8 2c.3 0 .5-.2.5-.5 0-.4-.2-.7-.5-.7-.2 0-.5.3-.5.7 0 .3.3.6.5.6zM36 62.2h.7v.7h-6.5v.6h8.5v.6h-8.5v.6h10.2V63h2.1v1.7H44V63h2v1.7h2.3l1.4-3.8H49v-3.2c.8-1.1 1.5-.6 1.9-.3l.7-1.8H36v6.6zm8-4.5c1-1.6 2 0 2 0v3.1h-2v-3zm-3.6 0c1.1-1.6 2.1 0 2.1 0v3.1h-2v-3zm-3.7 0c1.1-1.6 2.1 0 2.1 0v3.1h-2v-3z"/><path fill="#fff" d="M25.4 30c.7-.8.8-1.6.8-1.6h.8s0 1.6 2.3 2.5h.2v-9h-5.2v7.4c.3.3.7.5 1 .6zm2.5-7h1v2h-1v-2zm-1.6 0h1v2h-1v-2zm.3 3.4c.5 0 .8.4.8.9s-.3.8-.8.8c-.4 0-.7-.3-.7-.8s.3-.9.7-.9zM24.7 25v-2h1v2h-1zm4.8 38h-6v1.7h6v-1.8zM72 57l.7.7v3.1h-2l-1.5 3.9h1.4v-1.8h2.1v1.8h3v-1.8H78v1.8h4l-3.6-9.1h-5.7L72 57zm3.7.7c1.1-1.6 2.1 0 2.1 0V61h-2v-3.2zM32.8 13.4h-6.2v6.1h6.2v-6zm-4.4 5h-1.2v-2.7c.6-1.6 1.2 0 1.2 0v2.8zm2.3 0h-1.8v-2.7c1-1.6 1.8 0 1.8 0v2.8zm2 0h-1.3v-2.7c.6-1.6 1.2 0 1.2 0v2.8zm-3.2 1.8h-5.2v1h5.2v-1zM.8 62.2h22v-6.6H.8v6.6zm17.7-4.5c1.1-1.6 2.1 0 2.1 0v3.1h-2v-3zm-5.6 0c1.5-1.7 3.1 0 3.1 0v3.1h-3v-3zm-4.1 0c1-1.6 2.1 0 2.1 0v3.1H9l-.1-3zm14 5.3H.8v1.7h22v-1.8zM36 33.8h33.6l-.6-1.5v.3h-2v-2h1.3l-4-10.4H36v13.6zm25.6-3.2h2.1v2h-2v-2zm-3.7 0H60v2h-2v-2zm-5.1 0h2v2h-2v-2zm-3.7 0h2v2h-2v-2zm-5.2 0h2.2v2h-2.2v-2zm-5.4 0h2v2h-2v-2zM36 55h15.9l2.2-5.9H75L72.8 55H78l-8-20.4H36V55zm34.7-12h2v4h-2v-4zm-3.8-6.7h2V40h-2v-3.8zm0 6.8h2v3.8h-2v-3.8zm-5.1-6.8h2v4h-2v-4zm0 6.8h2v3.8h-2v-3.8zm-3.9-6.8H60v4h-2v-4zm0 6.8H60v3.8h-2v-3.8zm-5.1-6.8h2v4h-2v-4zm0 6.8h2v3.8h-2v-3.8zM49 36.3h2v4h-2v-4zm0 6.8h2v3.8h-2v-3.8zm0 6.6h2v3.9h-2v-3.9zm-5.2-13.4H46v4h-2.2v-4zm0 6.8H46v3.8h-2.2v-3.8zm0 6.6H46v3.9h-2.2v-3.9zm-3.5-13.4h2.1v4h-2v-4zm0 6.8h2.1v3.8h-2v-3.8zm0 6.6h2.1v3.9h-2v-3.9zm-3.7-13.4h2.1v4h-2v-4zm0 6.8h2.1v3.8h-2v-3.8zm0 6.6h2.1v3.9h-2v-3.9zM.8 55h22V34.4H.8v20.4zm17.7-18.7h2v4h-2v-4zm0 6.8h2v3.8h-2v-3.8zm0 6.6h2v3.9h-2v-3.9zM13 36.3h3v4h-3v-4zm0 6.8h3v4h-3v-4zm0 6.6h3v3.9h-3v-3.9zM5.6 36.3h2.1v4h-2v-4zm0 6.8h2.1v3.8h-2v-3.8zm0 6.6h2.1v3.9h-2v-3.9zm29.7-29.5h-5.1v1h5.1v-1zM34 27.9h-2.6v3.8h2.7V28zm-1.2 3.3c-.5 0-.8-.6-.8-1.4 0-.7.3-1.3.8-1.3.4 0 .7.6.7 1.3 0 .8-.3 1.4-.7 1.4zM30.2 55h5.1V34.4h-5.1v20.4zm1-18.7h3.2v4h-3.2v-4zm0 6.8h3.2v3.8h-3.2V43zm0 6.6h3.2v3.8h-3.2v-3.8zm-1 12.5h1v-4.6c1.9-2.5 3.2 0 3.2 0v4.6h.9v-6.6H30v6.6z"/><path fill="#fff" d="M30.2 31.7l.2.8c.1.9.3 1.2.4 1.3h4.5V22h-5.1v9.7zm4.6-3.8v4.5h-4v-5.2h4v.7zm-1-5H35v2h-1v-2zm-1.5 0h1v2h-1v-2zm-1.6 0h1v2h-1v-2zm-2.1 8.5a4 4 0 01-2-1.7c-.3.5-1 1.2-2 1.6-.7.3-.9.6-1.1 1.6l-.2 1h6.6l-.2-1c-.3-1-.5-1.2-1-1.5zm.9 3.1h-6v.5h6v-.5zM23.4 55h6V35.6h-6V55zM28 36.2h1v4h-1v-4zm0 6.8h1v3.8h-1V43zm0 6.6h1v3.8h-1v-3.8zm-2.2-13.4h1.5v4h-1.5v-4zm0 6.8h1.5v3.8h-1.5V43zm0 6.6h1.5v3.8h-1.5v-3.8zm-1.4-13.4h.7v4h-.7v-4zm0 6.8h.7v3.8h-.7V43zm0 6.6h.7v3.8h-.7v-3.8z"/><path fill="#737373" d="M20.6 43h-2v4h2v-4zM16 36.3h-3v4h3v-4zm4.6 13.4h-2v3.9h2v-3.9zm0-13.4h-2v4h2v-4zM11 57.7s-1-1.6-2.2 0V61H11v-3.2zM7.7 36.3h-2v4h2v-4zm0 13.4h-2v3.9h2v-3.9zm0-6.7h-2v4h2v-4zm8.3 6.7h-3v3.9h3v-3.9zm0 8s-1.5-1.7-3.1 0V61H16v-3.2zm18.4-21.4h-3.2v4h3.2v-4zM16 43h-3v4h3v-4zm4.6 14.7s-1-1.6-2 0V61h2v-3.2zM67 32.6h2v-.4l-.7-1.6H67v2zm-3.3-2h-2v2h2v-2zM38.8 43h-2v4h2v-4zm0-6.7h-2v4h2v-4zm0 13.4h-2v3.9h2v-3.9zM46 30.6h-2v2h2v-2zm14 0h-2.1v2H60v-2zm-19.4 0h-2.1v2h2v-2zm14.3 0h-2.1v2h2v-2zm-3.7 0H49v2h2v-2zM29.3 7.8V9h1V8s-.4-1-1 0zM25.8 23h-1.1v2h1v-2zM29 57.7s-.4-1.5-1 0V61h1v-3.2zm-2.4-29.6c.5 0 .8-.3.8-.8s-.3-.9-.8-.9c-.4 0-.7.4-.7.9s.3.8.7.8zm.8-5.1h-1.1v2h1v-2zm-.1 34.7s-.7-1.5-1.5 0V61h1.5v-3.2zm0-14.7h-1.5v4h1.5v-4zm1.7 0h-1v4h1v-4zm5.4 0h-3.2v4h3.2v-4zM25 57.7s-.3-1.5-.7 0V61h.7v-3.2zm2.3-21.4h-1.5v4h1.5v-4zM29 49.7h-1v3.8h1v-3.8zM29 23h-1.1v2h1v-2zm4.4 0h-1.1v2h1v-2zm-2.7 4.4v5h4v-5.2h-4v.2zm.7.5H34v3.8h-2.7V28zM35 23h-1.1v2h1v-2zm-.6 26.7h-3.2v3.8h3.2v-3.8z"/><path fill="#737373" d="M32.8 31.2c.4 0 .7-.6.7-1.4 0-.7-.3-1.3-.7-1.3-.5 0-.8.6-.8 1.3 0 .8.3 1.4.8 1.4zm9.7 18.5h-2v3.9h2v-3.9zM31.8 23h-1v2h1v-2zm-4.6-7.3v2.8h1.2v-2.8s-.6-1.6-1.2 0zm1.8 0v2.8h1.7v-2.8s-.8-1.6-1.8 0zm2.4 0v2.8h1.2v-2.8s-.5-1.6-1.2 0zM42.5 43h-2v4h2v-4zm30.2 17.8v-3c-.1-.4-.4-.6-.7-.7l-1.4 3.7h2.1zm-58.3-36c.6 0 1-.8 1-1.7 0-1-.4-1.7-1-1.7-.5 0-1 .7-1 1.7s.5 1.7 1 1.7zm12.9 24.9h-1.5v3.8h1.5v-3.8z"/><path fill="#737373" d="M6.9 25.5c1.4.1 1.6-1 1.6-1h-.7s0 .5-.7.4c-.4.1-.9-.8.2-1 3.8 0 4-3.3 4-3.5h6.4-.3s0 3.6 4 3.5c1.1.2.6 1.1.3 1-.7.1-.7-.4-.7-.4h-.7s.1 1.1 1.5 1c.8.2 2-2-.4-2.2-3.2 0-3.2-2.6-3.2-2.9v-.7h-7.7v.7c0 .4-.1 3-3.2 2.8-2.4.3-1.2 2.4-.4 2.3zM46 57.7s-1-1.6-2 0V61h2v-3.2zM12.5 17.5c2-2 4-.1 4-.1s.7 1.8 2.5 2.1V19c-1.6-.3-2.1-2-2.1-2s-2.4-2.4-4.8 0c-1 2-2.2 2-2.2 2v.6s1.7 0 2.6-2zM29 36.3h-1v4h1v-4zm13.5 21.4s-1-1.6-2 0V61h2v-3.2zm30.1-2.1h5.7l-.3-.7h-5.2l-.2.7zM49 57.7V61h.7l1.3-3.5c-.4-.3-1.1-.8-2 .3zM25 36.3h-.6v4h.7v-4zm52.9 28.4V63h-2.1v1.7h-3V63h-2.2v1.7h-1.4l-.3.7h13.2l-.3-.7h-4zM10.5 29.6h-2v3h2v-3zm10.1 0h-2v3h2v-3zm-3.9-.5h-4.2v3.5h4.2v-3.5z"/><path fill="#737373" d="M46 64.7V63h-2v1.7h-1.5V63h-2v1.7H30.1v-.5h8.5v-.7h-8.5v-.6h6.5v-.6H36v-6.7h15.6l.3-.7h-16V34.5h34l-.3-.7H36V20.2h28.3l-.3-.7H33.5v-6h.7v-.8h-.7a2 2 0 01-.3-.7c-.3-2-1.1-2.3-1.3-2.4v-4l-1-.9c0-.4-.4-.8-.8-1v-1c.5-.1.8-.7.8-1.3 0-.8-.5-1.4-1.1-1.4-.7 0-1.2.6-1.2 1.4 0 .7.3 1.2.8 1.4v.9c-.4.1-.8.5-1 1l-.8 1v3.8c-.2.2-.8.7-1 2.3l-.5 1h-.6v.6h.4v6.1h-2.3v8.8l-.6-1.8v-.7H5.9v.7c0 .6-.1 3-4.2 4.2-2.4.4-1.7 3-.4 3 1.9 0 2-1.5 2-1.5h-.8s-.2.7-1 .8c-.7 0-1-1.3.1-1.5 5-1.2 5-4.6 5-5h15.8c0 .3.4 3 2.4 4l-.9.4c-.6.3-.8.6-1 1.6-.2 1-.3 1.2-.4 1.3H.2v31.6H48l.3-.7H46zm-23.2 0H.8v-1.8h22v1.8zm0-2.4H.8v-6.7h22v6.7zm0-7.4H.8V34.5h22v20.4zm12.5 7.4h-1v-4.7s-1.2-2.5-3 0v4.6H30v-6.6h5.2v6.7zm0-7.4h-5.1V34.5h5.1v20.4zm0-21h-4.5c-.1-.2-.3-.5-.4-1.4 0-.3-.2-.5-.3-.7V22h5.2v11.8zm0-13.7v1h-5.1v-1h5.1zM29.8.8c.3 0 .5.3.5.6 0 .4-.2.7-.5.7-.2 0-.5-.3-.5-.7 0-.3.2-.6.5-.6zm-1.4 5l.8-.8c.3-.8.5-.7.5-.7s.4 0 .7.7c0 .3.6.7.8.9v.4h-2.8v-.5zm0 1.2h2.8v2.2h-2.8V7zm-1.1 5c.2-1.3.7-1.9 1-2.1h3c.2 0 .9.6 1.2 2.3l.1.4h-5.5l.2-.6zm-.7 1.3h6.2v6.1h-6.2v-6zm-2.3 6.8h5.2v1h-5.2v-1zm0 9V22h5.2v9l-.2-.1c-2.2-1-2.3-2.5-2.3-2.5h-.8s0 .8-.8 1.5c-.4-.1-.8-.3-1-.6zm5.2 35.5h-6v-1.8h6v1.8zm0-2.4h-6v-6.7h6v6.7zm0-7.4h-6v-19h6v19.1zm0-19.8h-6v-.6h6v.6zm-6.2-1.3l.2-.9c.2-1 .4-1.2 1-1.6 1.1-.4 1.7-1 2-1.5a4 4 0 002.1 1.6c.6.3.8.6 1 1.6l.3.8h-6.6z"/><path fill="#737373" d="M25 43h-.6v4h.7v-4zm0 6.7h-.6v3.8h.7v-3.8zm52.8 8s-1-1.6-2 0V61h2v-3.2zM46 36.3h-2v4h2v-4zm5.2 6.7H49v4h2v-4zm0 6.7H49v3.9h2v-3.9zm0-13.4H49v4h2v-4zm3.7 6.7h-2.1v4h2v-4zm-12.4-6.7h-2v4h2v-4zM46 49.7h-2v3.9h2v-3.9zm0-6.7h-2v4h2v-4zm22.9 0h-2v4h2v-4zm3.8 0h-2v4h2v-4zm-9 0h-2v4h2v-4zm0-6.7h-2v4h2v-4zm5.2 0h-2V40h2v-3.8zM38.8 57.7s-1-1.6-2 0V61h2v-3.2zM60 36.3h-2.1v4H60v-4zm-5.1 0h-2.1v4h2v-4zM60 43h-2.1v4H60v-4zm10.6 17.8l1.4-3.7.6-1.5.2-.7 2.2-5.8H54L52 55l-.3.7-.6 1.8-1.3 3.4-1.4 3.9-.3.7L43.3 78h21l4.6-12.6.3-.7 1.4-3.9zM95.7 47h-2.1v-4.1h.6l-10.7-27h-21l1.5 3.6.3.7 4 10.4.7 1.7.6 1.5.3.7L78 55l.4.7 3.6 9.1.2.7 5 12.5H108L95.7 46.8v.1zm-17.8-.2h-2.2v-3.9H78v3.9zm3.7 0h-2.2v-3.9h2.2v3.9zm0-6.7h-2.2v-3.8h2.2V40zm5 0h-1.9v-3.8h2V40zm4 6.8h-2.2v-3.8h2.2v3.8zm0-6.8h-2.2v-3.8h2.2V40z"/><path fill="#737373" d="M81.6 43h-2.2v3.8h2.2v-3.9zm0-6.7h-2.2V40h2.2v-3.8zm5.1 0h-2V40h2v-3.8zm3.9 0h-2.2V40h2.2v-3.8zm0 6.7h-2.2v4h2.2v-4zm3 4h2.1v-4.2h-2.1V47zm5.8-4h-2.1v4h2.1v-4zm0-6.7h-2.1V40h2.1v-3.8zm5.1 0h-2.1V40h2.1v-3.8zM77.9 43h-2.2v3.8H78v-3.9z"/></g><path fill="#737373" d="M132.2 21.6h4.7l1 2.4h1l-3.9-9.2h-.9l-4 9.2h1l1-2.4zm2.3-5.8l2 5h-4l2-5zm6.7-1.6h-.9V24h.9v-3.2l3.1 3.2h1.3l-3.4-3.3 3.1-2.8H144l-2.8 2.8v-6.5zm9.5 6c-2.3 0-4.3.2-4.3 2.1 0 1.4 1.2 1.9 2 1.9 1 0 1.7-.4 2.3-1.2l.1 1h.8l-.1-1.4V20c0-1.5-1-2.2-2.4-2.2-1 0-1.9.3-2.4.8l.5.6c.5-.4 1.1-.7 1.8-.7 1 0 1.7.5 1.7 1.6v.2zm0 .8v.4c0 1-.7 2-2 2-.7 0-1.4-.3-1.4-1.1 0-1.2 1.7-1.3 3.1-1.3h.3zm8 2h.1v1h.9v-9.8h-.9V19a2.8 2.8 0 00-2.3-1.2c-2 0-3.2 1.4-3.2 3.2 0 1.8 1.3 3.2 3.2 3.2.8 0 1.8-.5 2.3-1.2zm-4.4-2c0-1.4.8-2.5 2.3-2.5 1.3 0 2.3 1 2.3 2.5 0 1.3-1 2.4-2.3 2.4-1.5 0-2.3-1-2.3-2.4zm8.2-.5c.1-1 1-2 2.2-2 1.2 0 2 .8 2 2h-4.2zm5 .3c0-1.7-1-3-2.8-3a3 3 0 00-3.1 3.2 3 3 0 003.1 3.2c1 0 2-.4 2.7-1.3l-.7-.6c-.3.6-1 1.1-2 1.1-1.2 0-2.1-1-2.2-2.2h5v-.4zm2.9-1.8l-.1-1h-.9v6h1v-3.1c0-1.6.9-2.4 1.7-2.4 1.2 0 1.5.8 1.5 2V24h.9v-3.2c0-1.2.4-2.3 1.7-2.3 1.2 0 1.6.9 1.6 2.1V24h.9v-3.7c0-1.5-.8-2.5-2.3-2.5-1 0-1.8.4-2.2 1.2-.4-1-1.2-1.2-1.8-1.2-1 0-1.7.5-2 1.2zm11.5-1h-1v6h1v-6zm.1-2.4c0-.4-.3-.6-.6-.6s-.6.2-.6.6c0 .3.3.6.6.6s.6-.3.6-.6zm2.7 4.9c0-1 1-2 2.1-2 1.3 0 2 .8 2 2h-4zm5 .3c0-1.7-1-3-2.9-3a3 3 0 00-3 3.2 3 3 0 003.1 3.2c1 0 2-.4 2.6-1.3l-.6-.6c-.4.6-1 1.1-2 1.1-1.2 0-2.2-1-2.2-2.2h5v-.4zm7.8-2.9H196v-1.5c0-1 .2-1.6 1.2-1.6h.6l.2-.7h-.8c-1.4 0-2 .8-2 2.2v1.6h-1.3v.8h1.3V24h.8v-5.3h1.5v-.8zM204 24v-6.1h-1V21c0 1.7-.8 2.4-1.8 2.4-1.3 0-1.6-.8-1.6-2.1v-3.4h-1v3.7c0 1.6.8 2.6 2.4 2.6.9 0 1.7-.5 2-1.2h.1v1h.9zm-4.6-8.4c0 .3.3.7.7.7.4 0 .6-.4.6-.7 0-.3-.2-.7-.6-.7-.4 0-.7.4-.7.7zm2.5 0c0 .3.3.7.7.7.4 0 .6-.4.6-.7 0-.3-.2-.7-.6-.7-.4 0-.7.4-.7.7zm4.4 3.7V24h.9v-3.1c0-1.6.8-2.3 1.8-2.3h.6v-.8a2 2 0 00-.5 0c-.8 0-1.6.5-2 1.2v-1h-.9v1.3zm-74.1 11.5h-1V40h5.2v-.8h-4.2v-8.4zm5.9 5.7c0-1 1-2 2-2 1.4 0 2 .8 2.1 2h-4.1zm5 .3c0-1.7-1-3-3-3a3 3 0 00-3 3.2 3 3 0 003.2 3.2c1 0 1.9-.4 2.6-1.3l-.7-.6c-.3.6-1 1.1-2 1.1-1.2 0-2.1-1-2.2-2.2h5l.1-.4zm2.8-1.9v-4.7h-.9V40h1v-3.1c0-1.6.8-2.4 1.8-2.4 1.2 0 1.6.9 1.6 2.1V40h.9v-3.7c0-1.5-.8-2.5-2.3-2.5-.9 0-1.7.4-2 1.1zm6.7.4V40h.9v-3.1c0-1.6.8-2.3 1.8-2.3h.6v-.8a2 2 0 00-.5 0c-.8 0-1.6.5-2 1.2v-1h-.9v1.3zm5 1.2c0-1 .9-2 2-2 1.3 0 2 .8 2 2h-4zm5 .3c0-1.7-1-3-3-3a3 3 0 00-3 3.2 3 3 0 003.1 3.2c1 0 2-.4 2.7-1.3l-.7-.6c-.3.6-1 1.1-2 1.1-1.2 0-2.1-1-2.2-2.2h5v-.4zm1.9-1.5V40h.9v-3.1c0-1.6.8-2.3 1.7-2.3h.7v-.8a2 2 0 00-.5 0c-.9 0-1.6.5-2 1.2v-1h-.9v1.3zm7.2-1.4h-1.4v-1.5c0-1 .2-1.6 1.2-1.6h.6l.1-.7h-.7c-1.4 0-2 .8-2 2.2v1.6h-1.3v.8h1.2V40h1v-5.3h1.3v-.8zm7.3 3c0-1.8-1.3-3.1-3.2-3.1a3.1 3.1 0 00-3.2 3.2c0 1.8 1.3 3.2 3.2 3.2 1.9 0 3.2-1.4 3.2-3.2zm-.9 0c0 1.4-.9 2.5-2.3 2.5s-2.3-1-2.3-2.4.9-2.5 2.3-2.5 2.3 1 2.3 2.5zm2.8-1.6V40h1v-3.1c0-1.6.8-2.3 1.7-2.3h.6l.2-.8a2 2 0 00-.6 0c-.9 0-1.6.5-2 1.2v-1h-.9v1.3zm7.3-1.4h-1.7v-1.7h-.9v1.7h-1.2v.8h1.2v3.8c0 1.3 1 1.6 1.6 1.6.4 0 .7 0 1-.2v-.8l-.8.2c-.5 0-.9-.2-.9-1v-3.6h1.7v-.8zm2.3 5a3 3 0 002.3 1.3c2 0 3.2-1.4 3.2-3.2 0-1.8-1.3-3.2-3.2-3.2a3 3 0 00-2.3 1.2v-4.8h-.9V40h1v-1zm4.6-2c0 1.4-.9 2.5-2.3 2.5s-2.4-1-2.4-2.4 1-2.5 2.4-2.5 2.3 1.1 2.3 2.5zm3.7-3h-.9V40h.9v-6zm.2-2.3c0-.4-.3-.6-.7-.6-.3 0-.6.2-.6.6 0 .3.3.6.6.6.4 0 .7-.3.7-.6zm3-1.4h-.8V40h.8v-9.8zm7.4 8.8v1h1v-9.8h-1V35a2.8 2.8 0 00-2.3-1.2c-1.9 0-3.1 1.4-3.1 3.2 0 1.8 1.2 3.2 3.1 3.2a3 3 0 002.3-1.2zm-4.5-2c0-1.4.8-2.5 2.3-2.5 1.4 0 2.3 1 2.3 2.5 0 1.3-1 2.4-2.3 2.4-1.5 0-2.3-1-2.3-2.4zm13 3v-6.1h-.9V37c0 1.7-.9 2.4-1.8 2.4-1.3 0-1.7-.8-1.7-2.1v-3.4h-.9v3.7c0 1.6.8 2.6 2.3 2.6 1 0 1.8-.5 2.1-1.2l.1 1h.9zm2.3-6v6h1v-3.1c0-1.6.8-2.4 1.8-2.4 1.2 0 1.6.9 1.6 2.1V40h1v-3.7c0-1.5-.9-2.5-2.4-2.5-.9 0-1.8.5-2 1.2h-.1v-1h-1zm7.3 7.9a4 4 0 003 1.2c2.6 0 3.2-1.8 3.2-3.2v-6h-.9v1a2.7 2.7 0 00-2.3-1.1 3 3 0 00-3.1 3.1c0 1.8 1.2 3.1 3.1 3.1.9 0 1.8-.4 2.3-1.2v1.1c0 1.4-.6 2.4-2.4 2.4a3 3 0 01-2.3-1l-.6.6zm.8-5c0-1.3.8-2.4 2.3-2.4 1.4 0 2.3 1.1 2.3 2.4 0 1.4-1 2.3-2.3 2.3-1.5 0-2.3-1-2.3-2.3zM136.4 56v-6.1h-.9V53c0 1.7-1 2.4-1.8 2.4-1.3 0-1.7-.8-1.7-2.1v-3.4h-.9v3.7c0 1.6.8 2.6 2.3 2.6.9 0 1.8-.5 2.1-1.2v1h1zm2.3-6v6h1v-3.1c0-1.6.8-2.4 1.8-2.4 1.2 0 1.6.9 1.6 2.1V56h.9v-3.7c0-1.5-.8-2.5-2.3-2.5-.9 0-1.8.5-2.1 1.2v-1h-1zm12.6 5v1h.9v-9.8h-.9V51a2.8 2.8 0 00-2.3-1.2c-2 0-3.2 1.4-3.2 3.2 0 1.8 1.3 3.2 3.2 3.2a3 3 0 002.3-1.2zm-4.5-2c0-1.4.8-2.5 2.3-2.5 1.3 0 2.3 1 2.3 2.5 0 1.3-1 2.4-2.3 2.4-1.5 0-2.3-1-2.3-2.4zm11 3h1v-4.3h1.6c1.9 0 3.2-.8 3.2-2.4 0-1.7-1.3-2.5-3.1-2.5h-2.6V56zm1-8.4h1.6c1.4 0 2.2.5 2.2 1.7 0 1-.8 1.6-2.2 1.6h-1.6v-3.3zm6.1 4.9c0-1 1-2 2.1-2 1.3 0 2 .8 2 2h-4zm5 .3c0-1.7-1-3-2.9-3a3 3 0 00-3 3.2 3 3 0 003.1 3.2c1 0 2-.4 2.6-1.3l-.6-.6c-.4.6-1 1.1-2 1.1-1.2 0-2.2-1-2.2-2.2h5v-.4zm2-1.5V56h.8v-3.1c0-1.6.9-2.3 1.8-2.3h.6l.2-.8a2 2 0 00-.6 0c-.9 0-1.6.5-2 1.2v-1h-1l.1 1.3zm8.5-.4c-.3-.7-1.2-1.1-2-1.1-1.2 0-2.3.5-2.3 1.7s1 1.5 1.8 1.7c1.1.2 1.8.5 1.8 1.1 0 .8-.7 1.1-1.5 1.1a2 2 0 01-1.6-1l-.7.6c.5.8 1.4 1.2 2.4 1.2s2.2-.5 2.2-2c0-.9-.6-1.4-2-1.7-1-.2-1.5-.5-1.5-1 0-.7.6-1 1.3-1 .6 0 1.2.4 1.5.9l.6-.5zm8 2c0-1.8-1.4-3.1-3.3-3.1a3.1 3.1 0 00-3.2 3.2c0 1.8 1.3 3.2 3.2 3.2 1.9 0 3.3-1.4 3.3-3.2zm-1 0c0 1.4-.9 2.5-2.3 2.5s-2.3-1-2.3-2.4.9-2.5 2.3-2.5 2.3 1 2.3 2.5zm2.8-3V56h1v-3.1c0-1.6.8-2.4 1.8-2.4 1.3 0 1.6.9 1.6 2.1V56h1v-3.7c0-1.5-.8-2.5-2.4-2.5-.9 0-1.7.5-2 1.2h-.1v-1h-.9zm11.4 2.4c-2.2 0-4.2.1-4.2 2 0 1.4 1.1 1.9 2 1.9 1 0 1.7-.4 2.3-1.2v1h.9l-.1-1.4V52c0-1.5-1-2.2-2.4-2.2-1 0-1.9.3-2.4.8l.5.6c.4-.4 1.1-.7 1.8-.7 1 0 1.6.5 1.6 1.6v.2zm0 .7v.4c0 1-.7 2-2 2-.6 0-1.3-.3-1.3-1.1 0-1.2 1.6-1.3 3-1.3h.3zm4-6.8h-.8V56h.9v-9.8zm5 3.7h-1.4v-1.5c0-1 .2-1.6 1.1-1.6h.6l.2-.7h-.7c-1.4 0-2.1.8-2.1 2.2v1.6H207v.8h1.3V56h.9v-5.3h1.4v-.8zm6.5 6.1v-6.1h-1V53c0 1.7-.8 2.4-1.8 2.4-1.2 0-1.6-.8-1.6-2.1v-3.4h-.9v3.7c0 1.6.8 2.6 2.3 2.6.9 0 1.8-.5 2.1-1.2v1h1zm-4.6-8.4c0 .3.3.7.7.7.4 0 .7-.4.7-.7 0-.3-.3-.7-.7-.7-.4 0-.7.4-.7.7zm2.5 0c0 .3.3.7.7.7.4 0 .7-.4.7-.7 0-.3-.3-.7-.7-.7-.4 0-.7.4-.7.7zm5.3 3.3v-4.7h-.9V56h1v-3.1c0-1.6.8-2.4 1.8-2.4 1.2 0 1.6.9 1.6 2.1V56h1v-3.7c0-1.5-.9-2.5-2.4-2.5-.9 0-1.7.4-2 1.1zm6.7.4V56h.9v-3.1c0-1.6.8-2.3 1.8-2.3h.6l.1-.8a2 2 0 00-.6 0c-.8 0-1.6.5-2 1.2v-1h-.9v1.3zm10 4.7l-.1-1.3v-4.8h-.9V53c0 1.7-.9 2.4-1.8 2.4-1.3 0-1.7-.8-1.7-2.1v-3.4h-.9v3.7c0 1.6.8 2.6 2.3 2.6.9 0 1.8-.5 2.1-1.2l.1 1h.8zm2.2-6v6h1v-3.1c0-1.6.8-2.4 1.8-2.4 1.2 0 1.6.9 1.6 2.1V56h.9v-3.7c0-1.5-.8-2.5-2.3-2.5-.9 0-1.8.5-2.1 1.2v-1h-1zm7.3 7.9a4 4 0 002.9 1.2c2.7 0 3.3-1.8 3.3-3.2v-6h-.9v1a2.7 2.7 0 00-2.3-1.1 3 3 0 00-3.2 3.1c0 1.8 1.3 3.1 3.2 3.1.9 0 1.8-.4 2.3-1.2v1.1c0 1.4-.6 2.4-2.4 2.4a3 3 0 01-2.3-1l-.6.6zm.8-5c0-1.3.8-2.4 2.3-2.4 1.3 0 2.3 1.1 2.3 2.4 0 1.4-1 2.3-2.3 2.3-1.5 0-2.3-1-2.3-2.3zM131.3 72h3c2.3 0 4.8-1.5 4.8-4.6 0-3-2.5-4.6-4.8-4.6h-3V72zm.9-8.4h1.8c2.8 0 4.1 1.9 4.1 3.8s-1.3 3.8-4 3.8h-2v-7.6zm9.7 2.3h-.9V72h1v-6zm.2-2.3c0-.4-.3-.6-.6-.6s-.7.2-.7.6c0 .3.4.6.7.6.3 0 .6-.3.6-.6zm3-1.4h-.8V72h.9v-9.8zm3.3 0h-.8V72h.8v-9.8zm3.3 3.7h-.9V72h1v-6zm.2-2.3c0-.4-.3-.6-.6-.6s-.7.2-.7.6c0 .3.4.6.7.6.3 0 .6-.3.6-.6zm2.1 2.3V72h1v-3.1c0-1.6.9-2.4 1.8-2.4 1.3 0 1.6.9 1.6 2.1V72h1v-3.7c0-1.5-.8-2.5-2.4-2.5-.8 0-1.7.5-2 1.2l-.1-1h-.9zm7.3 8a4 4 0 003 1.2c2.6 0 3.2-1.8 3.2-3.2v-6h-.9v1a2.7 2.7 0 00-2.3-1.1 3 3 0 00-3.1 3.1c0 1.8 1.2 3.1 3.1 3.1.9 0 1.8-.4 2.3-1.2v1.1c0 1.4-.6 2.4-2.3 2.4a3 3 0 01-2.4-1l-.6.6zm.8-5c0-1.3.8-2.4 2.3-2.4 1.4 0 2.3 1.1 2.3 2.4 0 1.4-1 2.3-2.3 2.3-1.5 0-2.3-1-2.3-2.3zm8.2-.4c.1-1 1-2 2.2-2 1.2 0 2 .8 2 2h-4.2zm5 .3c0-1.7-1-3-2.8-3a3 3 0 00-3.1 3.2 3 3 0 003.1 3.2c1 0 2-.4 2.6-1.3l-.6-.6c-.4.6-1 1.1-2 1.1-1.2 0-2.2-1-2.2-2.2h5v-.4zm2-2.9V72h.9v-3.1c0-1.6.9-2.4 1.8-2.4 1.3 0 1.6.9 1.6 2.1V72h1v-3.7c0-1.5-.8-2.5-2.4-2.5-.8 0-1.7.5-2 1.2l-.1-1h-.9z"/><defs><clipPath id="clip0"><path fill="#fff" d="M0 0h108v78H0z"/></clipPath></defs></svg>