<svg xmlns="http://www.w3.org/2000/svg" width="249" height="33" fill="none"><g fill="#737373" clip-path="url(#clip0)"><path d="M156.6.3h5.2l6.8 18.7H163l-1-3.2h-5.7l-1 3.2h-11.8l-3.9-8c-1 1.3-2.3 2.1-2 4v4h-5.1V.3h5v6.8l5.2-6.8h6.2L143.3 7l6.4 12.2L156.6.3zm1 11.4h3.1l-1.6-6-1.6 6zM54.8 19H50v-9H50l-4.6 9.7-4.6-10V19H36V.3h4.7c1.5 3.5 3 7 4.7 10.4L50 .3h4.7V19zM218.8 10l-4.5 9.7-4.6-10V19H205V.4h4.7l4.6 10.4L219 .3h4.7V19H219v-9h-.2zM76.2 19h-4.7v-9c-1.6 3.1-3 6.3-4.6 9.7L62.3 10h-.1v9h-4.7V.3h4.7l4.7 10.5L71.6.3h4.6V19zM111.6 19h-5.7l-3.1-6.3h-2.2V19h-5V.4h.2c3.7 0 7.4-.1 11 .2 2.8.3 4.3 2.4 4.5 5.3 0 2.7-.9 4.8-3.4 6l3.7 7.1zm-11-14.7v4.3h4c1 0 1.5-.8 1.6-1.8.1-.9-.3-2-1.1-2.1l-4.5-.4zM170.1 19.1V.4h.2c3.2 0 6.4-.1 9.6.2 3.6.4 5.7 3 6.2 6.5.3 2.2.3 4.4-.3 6.6a6.8 6.8 0 01-6.2 5c-3.1.5-6.2.3-9.5.4zm5.2-14.6v10.3c1 0 1.8 0 2.6-.2a3.2 3.2 0 003-2.7c.3-1.7.2-3.3-.2-4.8-.3-1-.9-1.8-1.8-2-1.1-.4-2.3-.4-3.6-.6zM16.8 9.7c0-2.2.4-4.3 1.6-6.1a8 8 0 017-3.6A8.2 8.2 0 0134 7.2c.4 2.6.3 5.1-.8 7.5a7.8 7.8 0 01-7 4.7c-2 .1-4-.2-5.7-1.4-2-1.4-3-3.4-3.5-5.7l-.2-2.6zm5.2-.3c.2 1.3.3 2.3.6 3.3a3 3 0 003 2.2c1.3 0 2.3-.8 2.8-2.2.7-2.1.7-4.2-.1-6.3-.5-1.2-1.4-2-2.7-2-1.3 0-2.3.6-2.8 1.8-.4 1-.6 2.3-.8 3.2zM15.4 2.2l-2.3 3.7-4.6-1.4c-.6-.2-1.3 0-2 0-.3.1-.7.6-.7.9 0 .3.3.9.5 1l3 1c1 .3 2.3.6 3.4 1.1 2.2 1 3.1 2.9 3 5.3-.2 2.5-1.6 4.3-3.9 5-4.1 1.2-8 .5-11.8-1.6l2.4-3.9c1.5.5 2.8 1.1 4.3 1.5.8.2 1.7.1 2.7 0 .5 0 1-.2 1.1-.9.1-.6-.3-1-.9-1.2l-3.9-1.2a8.7 8.7 0 01-3.9-2C-.2 7.6 0 2.8 3.5 1a12 12 0 013.8-1c2.5-.2 5 .3 7.2 1.6l.9.6zM248.7.3v4.2h-9.1v2.7h5.4v4.3h-5.4v3.2h9.3V19h-14.4V.3h14.2zM84 11.4v3.4h9.4V19H78.9V.4h14.3v4.1H84v2.7h5.5v4.2H84zM202.5.3v4.2h-9.2v2.7h5.5v4.2h-5.5v3.3h9.4V19h-14.4V.3h14.2zM124.3 15.8h-5.7l-1 3.2H112L118.8.3h5.3l6.8 18.7h-5.6l-1-3.2zm-1.3-4l-1.6-6-1.6 6h3.2zM226.5 19V.3h5.1V19h-5zM40.9 22.4c1.7 0 3.3 0 5 .3.8 0 1.3.8 1.4 1.7.1 1 .1 1.9-.8 2.5-.2 0-.3.1-.5.3 1.7.6 2 1.9 1.8 3.4-.2 1.2-1.2 2-2.7 2.2H41V22.4zm1 9.4h3.2c1 0 1.7-.8 1.7-1.9 0-1-.6-2-1.5-2-1.1-.2-2.2-.1-3.3-.1v.6l-.1 3.4zm0-5h3c.8-.1 1.4-.8 1.4-1.6 0-1-.4-1.6-1.3-1.7h-3v3.3zM168.4 28.4h-2.5v4.4h-1.2V22.5h5c1.4.3 2.1 1.1 2.3 2.3.1 1.6-.4 2.7-1.7 3.3l-.7.3 2.2 4.3h-1.2l-2.2-4.3zm-2.5-5v4l3.7-.1c.9-.1 1.3-.9 1.4-1.8 0-1-.4-1.8-1.3-2-1.2 0-2.5 0-3.8-.2zM124 22.5v10.2l-1 .1-5.2-8.2h-.1v8.1l-1 .1V22.5h1l5.1 8.2h.2v-8.2h1zM215 24.7v8h-.8V22.7c.5-.3 1-.1 1.3.4l4.3 7 .6.7v-8.2h1v10.3h-1l-5.1-8-.2-.1zM7.5 32.8h-1l-5.2-8.3v8.3h-1V22.5h.9l5.3 8.4v-8.3l1-.1v10.3zM72.8 28.4l2.2 4.4h-1.2l-2.2-4.4H69v4.3h-1V22.3l5.5.4c1 .2 1.7 1.2 1.7 2.3.1 1.2-.3 2.3-1.4 2.9l-1 .5zm-3.7-1l3.7-.1c.8-.1 1.3-.8 1.4-1.8 0-1-.4-1.8-1.2-2-1.3 0-2.6 0-4-.2v4.2zM186 32.8V22.6c2-.6 5.2 0 6.3 1.3 1.4 1.6 1.6 4.8.4 6.8-1.5 2.5-4 2-6.6 2zm1.2-1c1.8 0 3.6.3 4.6-1.5.9-1.8 1-3.7-.1-5.4-1-1.7-2.8-1.5-4.5-1.5v8.4zM138.6 32.8V22.5c2.3 0 4.8-.5 6.4 1.8 1.2 1.5 1.3 4.8.1 6.5-1.6 2.4-4.1 2-6.5 2zm1-1c2.4.2 4-.2 4.6-1.5 1-1.8 1-3.8-.1-5.5-1-1.6-2.8-1.4-4.5-1.4v8.4zM208 27.7c-.3 1-.5 2.1-1 3-.7 1.6-2 2.3-3.6 2.3-1.7 0-2.9-1-3.5-2.4-1-2.1-1-4.3.2-6.3a4 4 0 016.5-.5c.8 1 1.2 2.2 1.4 3.9zm-7.9-.1c.3 1 .5 1.9.9 2.7.4 1 1.3 1.7 2.5 1.7 1.1 0 2-.5 2.5-1.5 1-2 1-3.9 0-5.8-1.3-2-4-2-5 .3-.4.8-.6 1.7-.9 2.6zM87.8 28.8l-1.8-.1v-1h2.7c.6 2.2-.5 4.5-2.4 5.1a4 4 0 01-5-2.6c-.7-2.1-.7-4.2.6-6.1 1.7-2.6 5.3-2 6.3-.1l-.7.6c-.9-1-2-1.6-3.3-1.2-.4.2-.9.5-1.2.9-1.5 1.6-1.5 4.9 0 6.6.7 1 1.8 1.3 3 1 1-.4 1.6-1.1 1.7-2.4v-.7zM236 32.8h-1.1l-1-2.6h-4.3l-1 2.6h-1l3.5-10.3h1.3l3.6 10.3zm-2.4-3.6l-1.8-5.6-1.9 5.6h3.7zM104.2 30.2l-1 2.6h-1l3.5-10.3h1.2l3.6 10.3h-1l-1-2.6h-4.3zm4-1l-1.8-5.3h-.2l-1.7 5.2h3.7zM14.3 32.8V22.5h6.1v1h-5v3.3h2.9v1h-2.9v4h5.3v1h-6.4zM241.6 22.4l1.2.1v5.8c0 .7 0 1.3.2 2 .4 1.2 1.4 1.8 2.8 1.7 1.3-.1 2-.9 2.2-2.3v-6.1-1h1v7.6c-.2 1.8-1.6 2.7-3.4 2.8-1.9 0-3.4-.9-3.6-2.6-.3-2.6-.3-5.2-.4-8zM152.2 22.5h6v.9h-5v3.4h3v1h-2.9v4h5.2v1h-6.3V22.4zM26.8 22.5h1v1.1c.1 2 0 3.9.2 5.9 0 2 1.7 3 3.6 2.3 1-.3 1.4-1.1 1.5-2.1v-6.2l.1-1h1v3c0 1.6 0 3.2-.2 4.7-.2 1.7-1.5 2.7-3.2 2.8-1.9.1-3.2-.8-3.7-2.4-.2-.6-.3-1.2-.3-1.9v-6.2zM54 22.5h1v6c0 .7.2 1.5.5 2.2.4 1.1 1.4 1.3 2.4 1.3s1.7-.4 2-1.4c.2-.6.4-1.2.4-1.9v-6.2h1V30c-.2 1.8-1.7 3-3.6 3-2 0-3.5-1.1-3.6-3.1-.2-2.4 0-4.9 0-7.4z"/></g><defs><clipPath id="clip0"><path fill="#fff" d="M0 0h249v33H0z"/></clipPath></defs></svg>