<svg xmlns="http://www.w3.org/2000/svg" width="177" height="47" fill="none"><g fill="#737373" clip-path="url(#clip0)"><path d="M75.5 31.1h1.2c1.8 0 2.5 1 2.5 2.3 0 1.8-1 2.6-2.6 2.7H76v1.1h.6c2.7 0 4.5-1.8 4.5-3.8 0-2.3-1.6-3.5-4.2-3.5h-3v12h1.6V31z"/><path fill-rule="evenodd" d="M85.4 30l-5 11.9h1.7l1.3-3.5H88l1.2 3.5h2l-4.6-12h-1.3zM84 37.1c.6-1.7 1.3-3.3 1.9-5.5.6 2.2 1.2 3.8 1.9 5.5h-3.8z" clip-rule="evenodd"/><path d="M99.2 31a4 4 0 00-3-1.3c-2 0-3.5 1.2-3.5 2.8 0 1.7 1.1 2.5 2.1 3.2 1 .7 2.9 1.7 2.9 3.2 0 1.3-1 2-2.2 2-1.1 0-1.9-.6-2.6-1l-.8 1c.9.8 2.3 1.2 3.5 1.2 2 0 3.8-1.3 3.8-3.2 0-1.5-1-2.6-2.7-3.8-1.6-1-2.3-1.7-2.3-2.6 0-.9.7-1.6 1.9-1.6a4 4 0 012.1.9l.8-.9zM108.3 31a4 4 0 00-3-1.3c-2 0-3.5 1.2-3.5 2.8 0 1.7 1.1 2.5 2.1 3.2 1 .7 2.9 1.7 2.9 3.2 0 1.3-1 2-2.2 2-1.1 0-2-.6-2.6-1l-.8 1c.9.8 2.3 1.2 3.5 1.2 2 0 3.8-1.3 3.8-3.2 0-1.5-1-2.6-2.7-3.8-1.6-1-2.3-1.7-2.3-2.6 0-.9.7-1.6 1.9-1.6a4 4 0 012 .9l.9-.9z"/><path fill-rule="evenodd" d="M114.3 30l-5 11.9h1.7l1.3-3.5h4.6l1.3 3.5h2l-4.6-12h-1.3zm-1.6 7.2a56 56 0 002-5.5c.6 2.2 1.2 3.8 1.8 5.5h-3.8z" clip-rule="evenodd"/><path d="M121.4 30v7.2c0 3.1 1.4 4.9 4.8 4.9 3 0 4.6-2 4.6-4.6v-7.6h-1.5v7.5c0 1.8-.8 3.5-3.1 3.5-2.2 0-3.1-1.3-3.1-3.7v-7.3h-1.7zM73.6 14.1v7.3c0 3 1.4 4.8 4.9 4.8 3 0 4.6-1.9 4.6-4.6v-7.5h-1.6v7.5c0 1.7-.8 3.5-3 3.5s-3.2-1.3-3.2-3.8v-7.2h-1.7zM96.6 14.1h-1.4v9.5l-8-9.5h-1.3v12h1.4v-9.6c.7 1 5.3 6.4 8 9.5h1.3V14.1zM99.5 26h1.7V14.1h-1.7v12zM108.3 26l4.8-11.9-1.5-.2-3.7 10.2-3.6-10.2-1.7.3 4.5 11.8h1.2zM120.6 14.1h-6v12h6.7v-1.3h-5v-4.5h4.2v-1.2h-4.3v-3.8h4.4V14z"/><path fill-rule="evenodd" d="M125 15.3h1.4c1.1 0 2 .6 2 2 0 1-.4 2.6-2.5 2.6h-1v-4.6zM123.1 26h1.7v-5h1.8l2.8 5.2 1.8-.5-3-5c1-.8 2-1.8 2-3.5 0-2.1-1.6-3.1-3.6-3.1h-3.5v12z" clip-rule="evenodd"/><path d="M139.5 15a4 4 0 00-3-1.1c-2 0-3.5 1.2-3.5 2.8 0 1.7 1 2.4 2.1 3.2 1 .7 2.8 1.7 2.8 3.2 0 1.3-.9 2-2 2-1.3 0-2-.6-2.8-1.1l-.7 1c.9.8 2.3 1.2 3.4 1.2 2 0 3.8-1.2 3.8-3 0-1.6-1-2.7-2.6-4-1.6-1-2.3-1.6-2.3-2.5 0-1 .6-1.6 1.9-1.6a4 4 0 012 .8l.9-.8zM142 26h1.7V14.1H142v12zM150.9 26V15.3h4V14h-9.6v1.2h3.9V26h1.7z"/><path fill-rule="evenodd" d="M158.5 10.6c-.4 0-.9.4-.9.9 0 .4.4.8.9.8s.9-.4.9-.8c0-.5-.4-1-1-1zm3.5 0c-.4 0-.9.4-.9.9 0 .4.5.8 1 .8.4 0 .8-.4.8-.8 0-.5-.4-1-.9-1zm-2.2 3.5l-5 12h1.7l1.3-3.6h4.7l1.2 3.5h2L161 14.1h-1.3zm-1.5 7.2l2-5.4a72 72 0 001.8 5.4h-3.8z" clip-rule="evenodd"/><path d="M171.3 26V15.3h4V14h-9.6v1.2h4V26h1.6zM33 20.5V.9l17 6v7.3h1.7V6.9l16.8-6v41l-1.7-1.7v-37L53.3 8v11h-5V8L34.8 3.4v17l-1.7.2z"/><path d="M58.5 45.4h9.4c-7-6.3-13.4-15.3-3-17l-1.1-.4c-10.8 1.5-9.5 9.5-5.3 17.4zM15.3 35.1H25c5.5-8 15.5-10 28.2-10.8l-1.2-.5c-15.4.2-30.6 3.7-36.7 11.3z"/><path d="M29.4 38.5h9.7c1.4-7.8 7.8-11.7 18-12.8l-1-.4c-13.5 1.1-24.4 4.9-26.7 13.2z"/><path d="M43.7 41.9h9.1C50.4 35 51.1 28.2 61 27l-1.1-.4C49 27.6 43.2 33.8 43.7 42zM1.8 31.7c6-5 24.8-9.4 46.1-9.4l1.3.5c-20.5.2-30 4-37.8 8.9H1.8z"/></g><defs><clipPath id="clip0"><path fill="#fff" d="M0 .1h177v46H0z"/></clipPath></defs></svg>