<svg xmlns="http://www.w3.org/2000/svg" width="91" height="81" fill="none"><g fill="#737373" clip-path="url(#clip0)"><path d="M86.8 80.1h-.5l-2-.1-3.7-.3-6.3-.4-4-.3-4-.3a391 391 0 01-4.7-.4l-5.8-.4-3.3-.3-4.5-.3-5.8-.4-5.2-.4-3.4-.3-6.1-.4-3.5-.3-4.2-.3-4.5-.3-6.8-.4-4-.3a2849.8 2849.8 0 01-1.2-.2l.1-1.2.4-5.5.3-4 .6-8.3.3-5 .5-6.5v-1.2L8 42l2.3-.2a200 200 0 006.2-.4l3.4-.3 2.9-.2 3.7-.2 2.8-.2 3.8-.3 2.8-.1H37c.4 0 .9-.2 1.3 0h2.3l3.9.3 6.5.4 4.2.3 4 .3 4.3.3 5.4.4 3.6.2 4.3.3a390.2 390.2 0 0011.7.8h2.1v.4l-.4 3.7-.9 8.2c0 1.2-.2 2.5-.4 3.7l-.6 6-.3 3.3-.5 4.2-.3 3.7c0 1.2-.2 2.3-.3 3.4zM36 57l.8-11.4c0-.1 0-.2-.2-.2l-1.9-.1-.1.2-.4 5.2a4226.5 4226.5 0 01-.5 4.3l-1.8-.1c-.2 0-.2 0-.2-.2l.4-5.3c0-1.4.2-2.7.3-4.1l-.1-.2-2-.1-.1.1-.7 10-.5 6.2a10877.7 10877.7 0 01-.3 6.8 62.3 62.3 0 012 0l.2-1.9.7-9.3c0-.2 0-.2.2-.2h1.7c.3 0 .3.2.3.4L33 68.2l.1.2 2 .1.1-.1v-.7l.8-10.7zm3.5-.7l.8-10.4c0-.2 0-.2-.2-.2l-1.8-.2c-.2 0-.2.1-.3.3l-.2 3.5-.6 8.2-.5 7.1v2c0 1.2.5 1.9 1.6 2.2 1 .3 2 .4 3.1.2a2 2 0 001.2-.6c.4-.5.5-1 .6-1.5l.2-1.9.5-6.7.4-6.5.4-5.6c0-.2 0-.2-.2-.2a55.9 55.9 0 01-2 0l-.7 9.3-.7 9.7-.1 2c0 .1 0 .2-.2.2a59.5 59.5 0 00-2-.3v-1l.7-9.6zM18.2 60l-.3 5.5-.2.1-1.8-.1c-.2 0-.3 0-.2-.2l.3-5.6c0-.2 0-.2-.2-.2a55.8 55.8 0 01-2 0l-.1 2.1-.2 3.2c0 1.3.5 2 1.8 2.4.9.3 1.8.3 2.7.2 1.2-.2 1.8-.7 2-1.9l.2-1.6.4-5.5v-2.7c0-.9-.6-1.5-1.4-1.7-.9-.2-1.7-.2-2.5-.2-.2 0-.3 0-.3-.3l.2-1.6.4-6c0-.1 0-.2.2-.2l1.7.1c.2 0 .3.1.3.3l-.4 4.5c0 .1 0 .2.2.2l1.9.1c.1 0 .2 0 .2-.2l.1-1.7.2-2.8c0-.5-.2-1-.6-1.4l-.9-.5a6.7 6.7 0 00-3.5-.3c-.7.2-1.2.6-1.4 1.3a5 5 0 00-.3 1.1l-.5 7c0 1.2.6 2 1.7 2.1l2.3.2c.2 0 .3 0 .3.3 0 1.5-.2 3-.3 4zm5.6-3.8l.2-2 .5-7.7c0-.2 0-.2.2-.2l1.8.1a338.7 338.7 0 00.1 5h1.8l.2-.1.3-4c0-1.4-.5-2.2-1.8-2.6-1-.2-1.9-.3-2.8-.2-1 .2-1.6.7-1.9 1.7l-.2 1-.6 8.4-.4 6.9-.2 2.8c0 1.4.6 2.2 2 2.5.8.2 1.8.3 2.7.1a2 2 0 001.7-1.5l.1-.4c.2-.7.2-1.4.2-2.1l.3-3.3c0-.2 0-.3-.2-.3l-1.9-.1c-.1 0-.2 0-.2.2v1.1l-.4 4.5c0 .2 0 .2-.2.2l-1.8-.1c-.1 0-.2 0-.2-.3l.7-9.6zm32 2.2h.7l.2-.1.1-1.5c0-.1 0-.2-.2-.2-.8 0-1.6 0-2.5-.2-.2 0-.3 0-.3-.2l.3-3.3.3-4.2c0-.1 0-.2.2-.2l2.5.2c.2 0 .3 0 .3-.2v-1.4c.1-.2 0-.2-.1-.2l-4.8-.3c-.2 0-.2 0-.2.2l-.4 4.7-.6 8.2-.6 9.8.1.2a1145666.8 1145666.8 0 005.1.1l.1-1.4c0-.2 0-.2-.2-.2l-2.6-.2c-.2 0-.2 0-.2-.2l.3-4.2.4-5.1c0-.2 0-.3.2-.2h2zm-6.4 11.2h.2c.2 0 .2 0 .2-.3L50 68c0-.1 0-.2-.2-.2l-2.5-.2c-.2 0-.3 0-.3-.2l.2-2 .6-8.2.5-7.2.2-3.5-.1-.2a62.3 62.3 0 01-2.1 0l-.2 3.4-.6 7.6-.5 7.1-.3 4.7c0 .2 0 .2.2.2l4.6.4zm20.4-3.7v-1.6l-.2-5.9v-3.3c0-.2-.1-.2-.3-.2h-1.1c-.2-.1-.3 0-.3.1l.2 2.5.5 10.5v2.7c0 .2.2.3.4.3h.8c.4 0 .3 0 .4-.3l2-10.5a411.8 411.8 0 01.6-5l-1.2-.1-.2.1-.2.9c-.5 3-1 6.1-1.3 9.2l-.1.6zm-8.2 1.3l.1-2 .3-.1c.7 0 1.5 0 2.3.2.2 0 .3 0 .3-.3l.3-4c0-.9-.3-1.4-1-1.6-.7-.2-1.4-.3-2.1-.2-.6.1-1 .4-1 1l-.2.7-.4 5.7-.1 2.3c0 .8.3 1.3 1.1 1.5.6.2 1.2.2 1.8.1.7 0 1-.4 1.2-1l.1-.5.2-2c0-.2 0-.2-.2-.2h-1c-.2-.1-.3 0-.3.2L63 69c0 .2 0 .2-.2.2h-1c-.2 0-.2-.1-.2-.3v-1.8zm5.2 2.7v-.6-.1l-1.4-.1h-.1l-.1 1.5h.1l1.3.2c.1 0 .2 0 .2-.2V70zm6.8.6v-.6l-.1-.2-1.3-.1-.2.1V71l.1.1 1.3.1.2-.1v-.6z"/><path d="M38.3 40.1H37l-1.1.1-2.9.2a48473.2 48473.2 0 01-6.6.4l-3.7.2-2.8.2-3.5.3-2.8.2-3.3.3L8 42l-2.4.2H3l-.2-.1-.3-3.3-.2-3.4-.5-6.2-.3-4-.2-3.5c0-1.3-.2-2.5-.3-3.8l-.4-6-.3-5-.1-.5V6h2l6-.5 9.3-.6 4.5-.3 4.6-.3 6.9-.5 4.3-.3 5.8-.4 6.8-.5c1.4 0 2.7-.2 4.1-.3l4.3-.2 7.3-.6 4-.3 4.3-.3A263 263 0 0084.5.1c.1 0 .2 0 .2.2V1a286.8 286.8 0 011 10.5l.3 4.1.4 5.4.6 10.2.4 5.2c0 .2 0 .2-.2.2a390 390 0 00-9.5.6l-7.3.5-3.8.3-5.3.3-6.6.5-4.5.4a886489.6 886489.6 0 01-10.5.8l-1.4.1zM22.7 21.6c1-.5 1.3-1.1 1.2-2v-2.2l-.5-4.8c0-.6-.2-1.3-.7-1.7-.7-.5-1.4-.7-2.1-.7l-4.4.2-.1.3.3 5.3.5 6 .3 5 .6 8.3c0 .2 0 .2.2.2l2.1-.1c.2 0 .2-.1.2-.2l-.4-5.2-.5-7c0-.1 0-.2.2-.2a60.6 60.6 0 002.2 0l.2 3.3.6 9h2.2c.2-.1.3-.2.2-.3 0-1.4-.2-2.8-.3-4.1l-.4-6.1-.1-1.5c-.1-.4-.3-.8-.7-1l-.8-.5zm34.6-2.4c1-.5 1.3-1.3 1.2-2.2 0-1.4-.1-2.7-.3-4 0-1 0-2-.2-3-.1-.9-.5-1.4-1.2-1.8-.5-.3-1-.4-1.6-.4l-4.4.2-.1.2.1 2.1.5 6.7.5 7.8.4 5 .2 3.1a71.6 71.6 0 012.2 0c.2 0 .2 0 .2-.2l-.3-5.1-.5-7c0-.1 0-.2.2-.2l2-.2c.1 0 .2 0 .2.3l.2 3.4.3 4.8a281.7 281.7 0 01.5 4H59l.6-.1V32L58.8 21c0-.8-.4-1.4-1.2-1.8h-.3zM11.2 36l2.7-.2c1.5-.3 2.4-1.3 2.4-2.8l-.1-2.4-.7-9.1-.5-7c0-.7 0-1.3-.2-2 0-.3-.2-.5-.5-.8a3 3 0 00-2.2-1l-4.4.3-.1.3.1 2.4 1 14.5.6 7.7c0 .2 0 .3.2.2h1.7zm31.2-24.6v.3l.2 3.9.5 6.2.5 8c0 .5 0 1.1.2 1.7.2 1.1.8 1.9 2 2a7 7 0 003.6-.2 2 2 0 001.4-1.7l.1-1.4-.3-4.7-.4-4.9-.4-5.9-.3-4.2c-.2-1.3-.9-2-2.2-2.3-1-.2-2 0-3.1.2-1 .3-1.6 1-1.8 2v1zm-5.2 6.7v1.3a70.1 70.1 0 00-2.4.2v-.7l-.5-7.3-.1-2.2c0-.1 0-.2-.2-.2l-2 .2c-.2 0-.2 0-.2.2 0 1 0 2 .2 3l.4 6.7.5 6.6.3 4.8.3 3.6c0 .1 0 .2.2.2l2-.2c.2 0 .2 0 .2-.3a857.6 857.6 0 01-.7-12.2l1.8-.2c.4 0 .4 0 .4.4l.3 4.1.4 4.9c0 1 0 2 .2 3 0 0 0 .2.2.1l2-.1c.1 0 .2 0 .2-.2l-.5-6.3c0-1.6-.2-3.2-.3-4.7l-.3-4.2-.4-6.6-.3-2.9c0-.1 0-.2-.2-.2a71.3 71.3 0 01-2.2.4l.2 1.6.5 7.2zm-8 16.7l2.6-.2c.2 0 .2 0 .2-.2l-.1-1.6c0-.2 0-.2-.2-.2l-2.8.2c-.2 0-.3 0-.3-.2l-.3-4.6-.4-5.5c0-.2 0-.3.2-.3l2.8-.2c.2 0 .2 0 .2-.2v-1.5c0-.2-.2-.3-.4-.2-.9 0-1.8 0-2.8.2-.1 0-.2 0-.2-.2l-.6-8.2c0-.2 0-.2.3-.2l2.8-.2c.2 0 .2-.1.2-.3l-.1-1.6c0-.1-.1-.2-.3-.1h-1.6l-3.6.3c-.2 0-.2.1-.2.3 0 1.6.2 3.1.3 4.7l.5 7.4.9 12.5c0 .2.1.2.3.2l2.5-.1zm35.1-2.5h1c.2 0 .3-.1.3-.3l-.2-2.5-.4-6-.3-4.6-.3-4.3-.4-5.3c0-.2 0-.2.2-.2l2-.1c.1 0 .2-.1.1-.3V7.2c0-.2-.1-.3-.3-.2l-3.5.2-3.3.2s-.2 0-.2.2l.1 1.7c0 .1 0 .2.2.2l2-.2a143 143 0 00.4 3.1l.8 10.4.4 6.2.2 3.1c0 .3.1.3.3.3h1zM62 62.2v-1.5c0-.2 0-.3.2-.2h1.1l.1.2a162.7 162.7 0 00-.3 3.2h-1c-.2 0-.3-.1-.3-.3l.1-1.4z"/><path d="M20.4 20.8h-1c-.1 0-.2 0-.2-.2l-.2-2.9-.3-4.9c0-.6-.2-.5.5-.6H21l.4 5.2.2 3v.1c0 .2 0 .2-.2.2h-1zM56 15.4l.2 2.7c0 .1 0 .2-.2.2l-2 .1-.2-.1-.6-8.2c0-.2 0-.2.3-.2l1.9-.2a493.2 493.2 0 01.6 5.7zM13.8 31c0 .9 0 1.8.2 2.6 0 .2 0 .2-.3.2l-2 .2-.1-.2-.5-7.3-.4-5-.3-4-.3-4.4c0-.2 0-.3.3-.3a63.2 63.2 0 002 .1l.7 8.2.7 10zM46 10.2h1v.1l.5 5.9.5 7 .4 5.5a115 115 0 000 2.8 67.1 67.1 0 00-2.2 0l-.5-7.2L45 15l-.3-4.5c0-.1 0-.2.2-.2h1z"/></g><defs><clipPath id="clip0"><path fill="#fff" d="M.2.1h90.4v80H.2z"/></clipPath></defs></svg>