<svg width="72" height="74" viewBox="0 0 72 74" fill="none" xmlns="http://www.w3.org/2000/svg">
  <g clip-path="url(#clip0_501_2)">
    <path fill-rule="evenodd" clip-rule="evenodd"
      d="M0.180664 32.765V0.0998535H71.9999V74H5.22609V55.6789H12.2108V32.765H0.180664ZM59.7565 53.4657C56.7819 53.4657 55.8615 51.8849 55.8615 50.2541L55.8287 38.8388H55.4178C54.2838 38.8388 53.7086 38.456 53.7086 37.3911C53.7086 36.2928 54.2838 35.9101 55.4178 35.9101H55.8287V32.9314C55.8287 31.3173 56.5846 30.5851 57.7679 30.5851C58.9512 30.5851 59.7072 31.3339 59.7072 32.9314V35.9101H60.5947C61.7287 35.9101 62.3039 36.2928 62.3039 37.3911C62.3039 38.456 61.7287 38.8388 60.5947 38.8388H59.7072V49.0394C59.7072 49.7715 59.8716 50.1876 60.759 50.2541C61.6465 50.2874 62.1888 50.6036 62.1888 51.6353C62.1888 52.9499 61.4 53.4657 59.7565 53.4657ZM48.4166 49.1725C48.4166 48.3072 48.1208 47.8246 47.0526 46.9926L44.0779 44.7794C41.8592 43.0987 41.4812 42.0171 41.4812 40.1867C41.4812 37.0583 43.667 35.5107 46.7732 35.5107C50.8983 35.5107 51.9665 38.3562 51.9665 39.7706C51.9665 40.9355 51.5063 41.7009 49.9451 41.7009C48.9097 41.7009 48.4331 41.1518 48.3673 40.1867C48.3016 39.0052 47.6771 38.4228 46.691 38.4228C45.9021 38.4228 45.3598 38.9386 45.3598 39.7706C45.3598 40.3364 45.5735 40.9521 46.2144 41.4347L48.5974 43.2651C51.0133 45.0956 52.2788 46.2438 52.2788 48.5901C52.2788 51.9847 49.8465 53.6821 46.6746 53.6821C42.5166 53.6821 41.3498 50.9197 41.3498 48.9062C41.3498 47.4252 42.2701 46.9427 43.1904 46.9427C44.6038 46.9427 45.0804 47.7248 45.2119 49.3555C45.2776 50.1044 45.6885 50.77 46.8882 50.77C47.9072 50.77 48.4166 50.2042 48.4166 49.1725ZM31.6533 40.9188V42.3666H35.006V40.9188C35.006 39.6042 34.5951 38.5725 33.3297 38.5725C32.0642 38.5725 31.6533 39.6042 31.6533 40.9188ZM33.4776 53.6987C28.2349 53.6987 27.594 50.8365 27.594 46.4102L27.5611 42.7659C27.5611 38.3396 28.2021 35.4774 33.4612 35.4774C37.4876 35.4774 38.8517 37.7571 38.8517 42.3166C38.8517 43.8975 38.6545 45.1122 36.6988 45.1122H31.6369V46.8761C31.6369 48.9728 31.8013 50.6036 33.379 50.6036C34.2007 50.6036 34.8417 49.7383 34.8745 48.8064C34.9403 47.1091 35.6963 46.7263 36.7809 46.7263C37.9149 46.7263 38.7367 47.1091 38.7367 48.6566C38.7367 51.8017 36.6166 53.6987 33.4776 53.6987ZM21.7761 53.6987C20.5929 53.6987 19.8369 52.9499 19.8369 51.3524V38.8388H19.426C18.292 38.8388 17.7168 38.456 17.7168 37.3911C17.7168 36.2928 18.292 35.9101 19.426 35.9101H19.8369V33.597C19.8369 30.6517 21.2009 29.7531 24.077 29.7531C25.3425 29.7531 26.0163 30.269 26.0163 31.4837C26.0163 32.2492 25.6383 32.7983 24.8494 32.8316C23.9126 32.8649 23.7154 33.2809 23.7154 34.3126V35.9101H24.3235C25.4575 35.9101 26.0327 36.2928 26.0327 37.3911C26.0327 38.456 25.4575 38.8388 24.3235 38.8388H23.7154V51.3524C23.7154 52.9665 22.943 53.6987 21.7761 53.6987ZM63.3719 25.9258C63.3719 27.2737 64.4402 28.3553 65.7714 28.3553C67.1026 28.3553 68.1708 27.257 68.1708 25.9258C68.1708 24.5779 67.1026 23.4963 65.7714 23.4963C64.4566 23.4963 63.3719 24.5779 63.3719 25.9258ZM46.8387 26.1588C46.8387 27.5066 47.8248 28.3719 48.9588 28.3719C50.0927 28.3719 51.0788 27.5066 51.0788 26.1588V21.6326L52.8209 18.9701L56.4365 26.6413C56.9788 27.7729 57.3897 28.3719 58.7209 28.3719C60.1507 28.3719 60.9725 27.5399 60.9725 26.5082C60.9725 26.0589 60.7752 25.5431 60.5287 25.0272L55.5819 14.7268L59.7399 7.95413C60.0521 7.43828 60.3151 6.77266 60.3151 6.29009C60.3151 5.20846 59.329 4.42636 58.195 4.42636C57.3075 4.42636 56.7981 4.74253 56.2229 5.77423L51.161 15.1095H51.0953V6.65618C51.0953 5.3083 50.1092 4.443 48.9752 4.443C47.8412 4.443 46.8387 5.3083 46.8387 6.65618V26.1588ZM33.8225 13.7783C33.8225 8.80279 34.6771 7.72116 36.3534 7.72116C38.0297 7.72116 38.8843 8.80279 38.8843 13.7783V18.6539C38.8843 24.295 38.0626 25.0938 36.3534 25.0938C34.6442 25.0938 33.8225 24.295 33.8225 18.6539V13.7783ZM29.3851 18.6539C29.3851 27.3402 32.4255 28.5051 36.3534 28.5051C40.2813 28.5051 43.3217 27.3569 43.3217 18.6539V13.7783C43.3217 5.3083 39.9033 4.30988 36.3534 4.30988C32.8035 4.30988 29.3851 5.3083 29.3851 13.7783V18.6539ZM16.6483 8.25366H18.7355C21.3651 8.25366 21.9403 10.2172 21.9403 15.2759V17.1396C21.9403 23.0969 20.8227 24.5446 18.6205 24.5446H16.6648C16.6483 24.5446 16.6483 8.25366 16.6483 8.25366ZM12.4082 25.6429C12.4082 27.2404 13.1313 27.9559 14.6926 27.9559H20.0503C24.0768 27.9559 26.3941 24.8774 26.3941 17.955V14.9598C26.3941 7.97077 24.6191 4.85901 20.2475 4.85901H14.6926C13.1478 4.85901 12.4082 5.55791 12.4082 7.17203V25.6429ZM55.7627 69.4572C55.319 69.4572 54.941 69.1244 54.941 68.6085V61.137C54.941 60.6211 55.2697 60.2883 55.8449 60.2883C56.3544 60.2883 56.6831 60.4048 56.9789 61.1203L58.9182 65.9793H58.9346V61.137C58.9346 60.6211 59.3126 60.2883 59.7563 60.2883C60.2001 60.2883 60.5781 60.6211 60.5781 61.137V68.5419C60.5781 69.1244 60.2001 69.4572 59.7563 69.4572C59.0825 69.4572 58.8031 69.3074 58.5402 68.6251L56.6009 63.6996H56.5844V68.6085C56.5844 69.1244 56.2065 69.4572 55.7627 69.4572ZM52.5087 65.4302H50.2407V67.8264H52.7388C53.3468 67.8264 53.5934 68.1426 53.5934 68.5586C53.5934 68.9746 53.3468 69.2908 52.7388 69.2908H49.4847C48.8931 69.2908 48.6137 69.0245 48.6137 68.4088V61.32C48.6137 60.7043 48.8931 60.4381 49.4847 60.4381H52.6566C53.2647 60.4381 53.5112 60.7542 53.5112 61.1702C53.5112 61.5862 53.2647 61.9024 52.6566 61.9024H50.2407V63.9658H52.5087C53.1167 63.9658 53.3633 64.282 53.3633 64.698C53.3633 65.114 53.1167 65.4302 52.5087 65.4302ZM45.376 68.6085V65.2638H43.2396V68.6085C43.2396 69.1244 42.8616 69.4572 42.4178 69.4572C41.9741 69.4572 41.5961 69.1244 41.5961 68.6085V61.1203C41.5961 60.6045 41.9741 60.2717 42.4178 60.2717C42.8616 60.2717 43.2396 60.6045 43.2396 61.1203V63.9492H45.376V61.1203C45.376 60.6045 45.754 60.2717 46.1978 60.2717C46.6415 60.2717 47.0195 60.6045 47.0195 61.1203V68.6085C47.0195 69.1244 46.6415 69.4572 46.1978 69.4572C45.754 69.4572 45.376 69.1244 45.376 68.6085ZM37.7175 69.5071C35.1537 69.5071 35.088 67.3771 35.088 65.6465V64.2487C35.088 61.1203 35.9426 60.2217 37.8983 60.2217C39.5089 60.2217 40.3471 61.2202 40.3471 62.4349C40.3471 63.0173 40.1498 63.4167 39.5253 63.4167C38.9008 63.4167 38.7529 63.1504 38.6543 62.4183C38.5721 61.8026 38.3256 61.5197 37.8983 61.5197C37.1587 61.5197 36.7972 61.8525 36.7972 64.4983V64.9975C36.7972 67.1109 36.8465 68.1925 37.849 68.1925C38.2763 68.1925 38.6543 67.7931 38.6707 67.2939C38.72 66.2955 38.8679 65.946 39.5418 65.946C40.1005 65.946 40.3635 66.3454 40.3635 66.9278C40.3635 68.7749 39.2952 69.5071 37.7175 69.5071ZM28.8757 69.4572C28.432 69.4572 28.054 69.1244 28.054 68.6085V61.137C28.054 60.6211 28.3827 60.2883 28.9579 60.2883C29.4674 60.2883 29.796 60.4048 30.0919 61.1203L32.0311 65.9793H32.0476V61.137C32.0476 60.6211 32.4256 60.2883 32.8693 60.2883C33.313 60.2883 33.691 60.6211 33.691 61.137V68.5419C33.691 69.1244 33.313 69.4572 32.8693 69.4572C32.1955 69.4572 31.9161 69.3074 31.6532 68.6251L29.7139 63.6996H29.6974V68.6085C29.6974 69.1244 29.3194 69.4572 28.8757 69.4572ZM22.7456 59.7225C22.2854 59.7225 21.9239 59.3398 21.9239 58.8905C21.9239 58.4412 22.2854 58.0751 22.7456 58.0585C23.2058 58.0585 23.5673 58.4246 23.5673 58.8905C23.5673 59.3564 23.2058 59.7225 22.7456 59.7225ZM25.0136 59.7225C24.5534 59.7225 24.1918 59.3398 24.1918 58.8905C24.1918 58.4412 24.5534 58.0751 25.0136 58.0585C25.4737 58.0585 25.8353 58.4246 25.8353 58.8905C25.8353 59.3564 25.4737 59.7225 25.0136 59.7225ZM23.8631 69.5071C22.1211 69.5071 21.2172 68.492 21.2172 66.9445L21.2007 61.1203C21.2007 60.6045 21.5787 60.2717 22.0225 60.2717C22.4662 60.2717 22.8442 60.6045 22.8442 61.1203V66.7781C22.8442 67.7432 23.2386 68.1925 23.8631 68.1925C24.4712 68.1925 24.8657 67.7598 24.8657 66.7781V61.1203C24.8657 60.6045 25.2437 60.2717 25.6874 60.2717C26.1311 60.2717 26.5091 60.6045 26.5091 61.1203V66.9445C26.5091 68.492 25.6217 69.5071 23.8631 69.5071ZM13.3286 69.4572C12.8848 69.4572 12.5068 69.1244 12.5068 68.6085L12.5397 61.4864C12.5397 60.6877 12.8027 60.2717 13.8545 60.2717C14.6762 60.2717 15.1035 60.5712 15.3007 61.5862L16.106 65.8462H16.1389L16.9442 61.5862C17.1414 60.5878 17.5687 60.2717 18.3904 60.2717C19.4422 60.2717 19.7052 60.6877 19.7052 61.4864V68.6085C19.7052 69.1244 19.3272 69.4572 18.8835 69.4572C18.4397 69.4572 18.0617 69.1244 18.0617 68.6085V62.2352H18.0289L16.6977 68.908C16.6319 69.2076 16.5333 69.4572 16.106 69.4572C15.6787 69.4572 15.5801 69.1909 15.5144 68.908L14.1832 62.2352H14.1503V68.6085C14.1503 69.1244 13.7723 69.4572 13.3286 69.4572Z"
      fill="#737373" />
  </g>
  <defs>
    <clipPath id="clip0_501_2">
      <rect width="72" height="74" fill="white" />
    </clipPath>
  </defs>
</svg>