<svg width="97" height="74" viewBox="0 0 97 74" fill="none" xmlns="http://www.w3.org/2000/svg">
	<path
		d="M11 35C13.1 35 14.6 33.5 14.6 29.1V13.6H21.7V31.2C21.7 37 19.4 41 12.1 41C10.5 41 8.9 40.6 7.7 40.3V34.4C8.7 34.7 9.8 35 11 35ZM27.6 40.5V13.6H45.6V18.7H34.8V24.6H45.1V29.7H34.8V40.5H27.6V40.5ZM49.9 40.5V13.6H67.9V18.7H57.1V24.6H67.4V29.7H57.1V40.5H49.9ZM72.1 4.70001H4.2C3.1 4.70001 2.1 5.20001 1.3 6.00001C0.6 6.70001 0.1 7.60001 0 8.60001V45.5C0.1 46.5 0.5 47.4 1.3 48.2C2.1 49 3.2 49.5 4.4 49.5H83.3C84.4 49.5 85.6 49 86.4 48.2C87.2 47.4 87.7 46.2 87.7 45V15.6H75.5C74.6 15.6 73.8 15.2 73.2 14.6C72.6 14 72.2 13.1 72.2 12.2L72.1 4.70001"
		fill="#737373" />
	<path fill-rule="evenodd" clip-rule="evenodd"
		d="M86.1 0H95.7C96.4 0 97 0.7 97 1.4V11C97 11.8 96.4 12.4 95.7 12.4H76.5C75.8 12.4 75.2 11.8 75.2 11V1.4C75.2 0.6 75.8 0 76.5 0H86.1ZM7.6 59.7L8.2 59.8C9 59.8 9 59.1 9 58.6V54.2H10.3V59.3C10.3 60 9.9 61 8.5 61L7.5 60.9V59.7H7.6ZM11.8 54.2H15.4V55.2H13.1V56.8H15.3V57.8H13.1V60.7H11.8V54.2ZM16.6 54.2H20.2V55.2H17.9V56.8H20V57.8H17.8V60.7H16.5V54.2H16.6ZM23.2 58.7H27.8V57.8H23.2V58.7ZM31 60.8H32.3V54.2H31V60.8V60.8ZM33.7 55.9H34.9V56.6C35.3 56 35.8 55.8 36.5 55.8C37.6 55.8 38.1 56.6 38.1 57.7V60.8H36.9V58.2C36.9 57.6 36.9 56.8 36.1 56.8C35.2 56.8 35 57.8 35 58.4V60.8H33.8V55.9H33.7ZM42.3 57L41.2 56.8C40.9 56.8 40.5 56.9 40.5 57.3C40.5 58.1 42.7 57.6 42.7 59.4C42.7 60.5 41.7 61 40.7 61L39.3 60.8L39.4 59.8L40.6 60.1C40.9 60.1 41.4 60 41.4 59.5C41.4 58.5 39.3 59.2 39.3 57.4C39.3 56.3 40.2 55.9 41.2 55.9L42.5 56.1L42.3 57V57ZM44.1 56.9H43.2V56H44.1V55L45.3 54.6V56H46.4V56.9H45.3V59.2C45.3 59.6 45.4 60 45.9 60L46.5 59.9V60.9L45.6 61C44.6 61 44.1 60.4 44.1 59.4V56.9V56.9ZM47.4 60.8H48.6V55.9H47.4V60.8ZM47.4 55H48.6V53.8H47.4V55V55ZM50.5 56.9H49.6V56H50.5V55L51.7 54.6V56H52.8V56.9H51.7V59.2C51.7 59.6 51.8 60 52.3 60L52.9 59.9V60.9L52 61C51 61 50.5 60.4 50.5 59.4V56.9V56.9ZM58.1 60.8H57V60.1C56.8137 60.3484 56.5721 60.55 56.2944 60.6889C56.0167 60.8277 55.7105 60.9 55.4 60.9C54.3 60.9 53.8 60.1 53.8 59V55.9H55V58.5C55 59.1 55 59.9 55.8 59.9C56.7 59.9 56.9 58.9 56.9 58.3V55.9H58.1V60.8V60.8ZM59.9 56.9H59V56H59.9V55L61.1 54.6V56H62.2V56.9H61.1V59.2C61.1 59.6 61.2 60 61.7 60L62.3 59.9V60.9L61.4 61C60.4 61 59.9 60.4 59.9 59.4V56.9V56.9ZM66.4 56.9H65.5V56H66.4V55.3C66.4 54.3 66.9 53.6 67.9 53.6L68.8 53.7L68.7 54.8C68.5615 54.6776 68.3848 54.6069 68.2 54.6C67.8 54.6 67.7 55 67.7 55.4V56H68.8V56.9H67.7V60.9H66.5V56.9H66.4ZM72.2 55H73.3V53.9H72.2V55V55ZM70.3 55H71.4V53.9H70.3V55V55ZM74 60.8H72.8V60.1C72.6137 60.3484 72.3721 60.55 72.0944 60.6889C71.8167 60.8277 71.5105 60.9 71.2 60.9C70.1 60.9 69.6 60.1 69.6 59V55.9H70.8V58.5C70.8 59.1 70.8 59.9 71.6 59.9C72.5 59.9 72.7 58.9 72.7 58.3V55.9H74V60.8V60.8ZM75.4 55.9H76.5V57C76.6 56.5 77.1 55.8 77.8 55.8H78.2V57.1L77.6 57C76.6 57 76.6 58.3 76.6 59V60.8H75.4V55.9V55.9ZM8.1 65.3H10.2L11.7 70.3L13.2 65.3H15.3V71.9H14.1V66.4L12.4 71.9H11.2L9.5 66.4V71.8H8.1V65.3ZM19.8 69C19.8 68.4 19.5 67.9 18.8 67.9C18.1 67.9 17.8 68.4 17.7 69H19.8ZM20.7 71.6C20.2145 71.8802 19.6602 72.0188 19.1 72C17.5 72 16.6 71.1 16.6 69.5C16.6 68.1 17.3 66.9 18.8 66.9C20.6 66.9 21.1 68.1 21.1 69.9H17.8C17.9 70.7 18.4 71.1 19.2 71.1C19.77 71.0887 20.325 70.9153 20.8 70.6V71.6H20.7ZM24.1 71C24.9 71 25.2 70.1 25.2 69.4C25.2 68.7 24.9 67.8 24.1 67.8C23.3 67.8 23.1 68.7 23.1 69.4C23.1 70.1 23.3 71 24.1 71ZM25.2 71.3C24.8 71.8 24.3 72 23.7 72C22.2 72 21.7 70.8 21.7 69.4C21.7 68.1 22.2 66.9 23.7 66.9C24.3 66.9 24.8 67.1 25.1 67.6V64.8H26.3V71.9H25.1V71.3H25.2ZM27.9 71.9H29.1V67H27.9V71.9V71.9ZM27.9 66.1H29.1V64.9H27.9V66.1ZM33.5 69C33.5 68.4 33.2 67.9 32.5 67.9C31.8 67.9 31.5 68.4 31.4 69H33.5ZM34.3 71.6C33.8145 71.8802 33.2602 72.0188 32.7 72C31.1 72 30.2 71.1 30.2 69.5C30.2 68.1 30.9 66.9 32.4 66.9C34.2 66.9 34.7 68.1 34.7 69.9H31.4C31.5 70.7 32 71.1 32.8 71.1C33.37 71.0887 33.925 70.9153 34.4 70.6V71.6H34.3ZM35.7 67H36.9V67.7C37.3 67.1 37.8 66.9 38.5 66.9C39.6 66.9 40.1 67.7 40.1 68.8V71.9H38.9V69.3C38.9 68.7 38.9 67.9 38.1 67.9C37.2 67.9 37 68.9 37 69.5V71.9H35.8V67H35.7ZM42.7 69.4C42.7 70.1 43 71 43.8 71C44.6 71 44.8 70.1 44.8 69.4C44.8 68.7 44.6 67.8 43.8 67.8C43.1 67.9 42.7 68.8 42.7 69.4ZM41.5 67H42.7V67.7C43 67.2 43.4 66.9 44.2 66.9C45.7 66.9 46.2 68.1 46.2 69.4C46.2 70.7 45.7 72 44.2 72C43.7 72 43.2 71.9 42.8 71.3V73.9H41.6V67H41.5ZM49.6 66.1H50.7V65H49.6V66.1ZM48.9 71.1C49.3 71.1 49.6 70.9 49.8 70.7C50 70.4 50.1 70.1 50.1 69.7H49.6C49 69.7 48.2 69.8 48.2 70.5C48.1 70.9 48.5 71.1 48.9 71.1V71.1ZM47.7 66.1H48.8V65H47.7V66.1ZM47.5 67.3C48 67.1 48.6 66.9 49.2 66.9C50.6 66.9 51.2 67.5 51.2 69V70.8L51.3 71.9H50.2L50.1 71.2C49.8 71.7 49.2 72 48.6 72C47.8 72 46.9 71.5 46.9 70.5C46.9 69.8 47.2 69.3 47.7 69.1C48.2 68.9 48.8 68.8 49.3 68.8H50C50 68 49.7 67.7 48.9 67.7C48.4 67.7 47.8 67.9 47.4 68.2L47.5 67.3V67.3ZM54.5 71C55.3 71 55.6 70.1 55.6 69.4C55.6 68.7 55.3 67.8 54.5 67.8C53.7 67.8 53.5 68.7 53.5 69.4C53.5 70.1 53.7 71 54.5 71ZM55.6 71.3C55.2 71.8 54.7 72 54.1 72C52.6 72 52.1 70.8 52.1 69.4C52.1 68.1 52.6 66.9 54.1 66.9C54.7 66.9 55.2 67.1 55.5 67.6V64.8H56.7V71.9H55.5V71.3H55.6ZM59.9 71.1C60.3 71.1 60.6 70.9 60.8 70.7C61 70.4 61.1 70.1 61.1 69.7H60.6C60 69.7 59.2 69.8 59.2 70.5C59.1 70.9 59.5 71.1 59.9 71.1V71.1ZM58.4 67.3C58.9 67.1 59.5 66.9 60.1 66.9C61.5 66.9 62.1 67.5 62.1 69V70.8L62.2 71.9H61.1L61 71.2C60.7 71.7 60.1 72 59.5 72C58.7 72 57.8 71.5 57.8 70.5C57.8 69.8 58.1 69.3 58.6 69.1C59.1 68.9 59.7 68.8 60.2 68.8H61C61 68 60.7 67.7 59.9 67.7C59.4 67.7 58.8 67.9 58.4 68.2V67.3V67.3ZM66.6 69.4C66.6 68.6 66.3 67.9 65.6 67.9C64.8 67.9 64.5 68.7 64.5 69.4C64.5 70.1 64.8 70.9 65.6 70.9C66.3 70.9 66.6 70.2 66.6 69.4ZM67.8 67V71.4C67.8 72.7 67.3 74 65.3 74C64.8 74 64.2 73.9 63.7 73.7L63.8 72.6C64.2 72.8 64.8 73 65.2 73C66.6 73 66.6 71.9 66.6 71.1C66.4 71.5 65.8 71.9 65.1 71.9C63.7 71.9 63.2 70.7 63.2 69.4C63.2 68.2 63.8 66.9 65.2 66.9C65.8 66.9 66.3 67.1 66.7 67.7V67H67.8V67ZM71.4 71C72.4 71 72.6 70.1 72.6 69.3C72.6 68.6 72.2 67.8 71.4 67.8C70.6 67.8 70.2 68.5 70.2 69.3C70.2 70.1 70.5 71 71.4 71ZM71.4 66.9C72.8 66.9 73.9 67.9 73.9 69.5C73.9 70.9 73 72 71.4 72C69.8 72 68.9 70.9 68.9 69.5C68.9 67.9 70 66.9 71.4 66.9ZM78.1 69.4C78.1 68.6 77.8 67.9 77.1 67.9C76.3 67.9 76 68.7 76 69.4C76 70.1 76.3 70.9 77.1 70.9C77.8 70.9 78.1 70.2 78.1 69.4ZM79.3 67V71.4C79.3 72.7 78.8 74 76.8 74C76.3 74 75.7 73.9 75.2 73.7L75.3 72.6C75.7 72.8 76.3 73 76.7 73C78.1 73 78.1 71.9 78.1 71.1C77.9 71.5 77.3 71.9 76.6 71.9C75.2 71.9 74.7 70.7 74.7 69.4C74.7 68.2 75.3 66.9 76.7 66.9C77.3 66.9 77.8 67.1 78.2 67.7V67H79.3V67ZM80.7 71.9H82V67H80.8V71.9H80.7ZM80.7 66.1H82V64.9H80.8V66.1H80.7ZM83.4 64.8H84.6V69L86.1 67H87.6L85.8 69.2L87.8 71.9H86.2L84.6 69.5V71.9H83.4V64.8V64.8Z"
		fill="#737373" />
</svg>